<?xml version="1.0" encoding="UTF-8"?>
<svg version="1.1" xmlns="http://www.w3.org/2000/svg" width="190" height="188">
<path d="M0 0 C19.73600472 16.45728135 32.312434 39.22613559 34.6875 65 C36.38304877 93.76483608 26.77000356 117.53984605 7.86328125 139.078125 C-8.30190185 156.29387555 -31.80241498 165.84997431 -55.08984375 167.22265625 C-83.23688603 167.85921669 -106.89764016 157.54025718 -127.375 138.3125 C-144.67256105 120.42207899 -153.76166433 95.93901282 -153.61279297 71.22338867 C-152.91553508 44.83123528 -141.56940346 21.32039302 -122.62109375 3 C-86.87362669 -27.96904083 -36.86401424 -28.61590147 0 0 Z " fill="#FCFCFB" transform="translate(154.3125,21)"/>
<path d="M0 0 C4.07524365 2.23435773 6.45018487 5.1752773 9 9 C9.25760279 11.69452521 9.08900053 14.28548375 9 17 C10.051875 16.938125 11.10375 16.87625 12.1875 16.8125 C16.21353023 17.01050149 17.85623579 17.57481047 21 20 C23.01696222 23.02544334 23.25811096 23.61067382 23.1875 27 C23.18105469 27.680625 23.17460938 28.36125 23.16796875 29.0625 C23 31 23 31 22 34 C23.61594832 36.04119788 25.2856382 38.04072937 27 40 C27.33 40.99 27.66 41.98 28 43 C28.69867188 42.96519531 29.39734375 42.93039063 30.1171875 42.89453125 C31.02726562 42.86746094 31.93734375 42.84039062 32.875 42.8125 C33.77992187 42.77769531 34.68484375 42.74289063 35.6171875 42.70703125 C36.79667969 42.85205078 36.79667969 42.85205078 38 43 C40 46 40 46 40 49 C40.99 48.34 41.98 47.68 43 47 C45.6875 47.375 45.6875 47.375 48 48 C48.99 45.03 48.99 45.03 50 42 C51.32 42 52.64 42 54 42 C54.495 45.96 54.495 45.96 55 50 C55.556875 49.505 56.11375 49.01 56.6875 48.5 C59.41508925 46.73075292 60.80848491 46.5800638 64 47 C64.66 47.66 65.32 48.32 66 49 C69.32901247 46.78065836 69.75023244 45.65316671 71 42 C72.32 42 73.64 42 75 42 C75.495 45.465 75.495 45.465 76 49 C76.99 48.34 77.98 47.68 79 47 C81.5 46.875 81.5 46.875 84 47 C86.0217996 47 88.04447908 46.9360523 90.0625 46.8125 C91.5165625 46.9053125 91.5165625 46.9053125 93 47 C93.66 47.99 94.32 48.98 95 50 C95.804375 49.2575 95.804375 49.2575 96.625 48.5 C99.60001066 46.6210459 101.54402983 46.88637906 105 47 C105.10826289 49.4178712 105.18739789 51.83087556 105.25 54.25 C105.28351563 54.93191406 105.31703125 55.61382812 105.3515625 56.31640625 C105.4215705 59.92181813 105.29151719 61.64068812 102.984375 64.484375 C102.32953125 64.98453125 101.6746875 65.4846875 101 66 C102.32 66.66 103.64 67.32 105 68 C104.33333333 71.33333333 103.66666667 74.66666667 103 78 C107.30031962 79.17281444 110.62908604 78.66674959 115 78 C117.67397837 77.91555858 120.32369261 77.95304724 123 78 C119.87351251 80.08432499 116.94269132 81.28558611 113.4375 82.625 C112.28121094 83.07101563 111.12492188 83.51703125 109.93359375 83.9765625 C107 85 107 85 105 85 C105 85.66 105 86.32 105 87 C102.03 87.99 102.03 87.99 99 89 C103.95 89.33 108.9 89.66 114 90 C114.99 88.02 114.99 88.02 116 86 C116.66 86.33 117.32 86.66 118 87 C117.67 87.66 117.34 88.32 117 89 C119.97 89 122.94 89 126 89 C126 89.99 126 90.98 126 92 C122.37 92 118.74 92 115 92 C111.74073249 99.6731095 109.2082889 106.61163812 109 115 C108.01 115 107.02 115 106 115 C106.33 110.71 106.66 106.42 107 102 C105.35 103.65 103.7 105.3 102 107 C99 106 99 106 97 103 C96.01 103 95.02 103 94 103 C94.33 104.65 94.66 106.3 95 108 C92 110 92 110 89 110 C89.165 109.21625 89.33 108.4325 89.5 107.625 C90.26737563 103.60126409 90.26737563 103.60126409 88 100 C87.62488281 100.48210937 87.24976563 100.96421875 86.86328125 101.4609375 C82.54662075 106.78880562 82.54662075 106.78880562 79.25 108.0625 C76.63586139 108.84271635 76.63586139 108.84271635 75.6875 112.125 C75.460625 113.07375 75.23375 114.0225 75 115 C74.34 115 73.68 115 73 115 C73.144375 114.37351562 73.28875 113.74703125 73.4375 113.1015625 C73.7159375 111.87566406 73.7159375 111.87566406 74 110.625 C74.2784375 109.40683594 74.2784375 109.40683594 74.5625 108.1640625 C75.06605239 106.04125049 75.06605239 106.04125049 75 104 C73.68 104 72.36 104 71 104 C70.67 102.68 70.34 101.36 70 100 C69.319375 100.99 69.319375 100.99 68.625 102 C68.08875 102.66 67.5525 103.32 67 104 C66.34 104 65.68 104 65 104 C64.67 102.35 64.34 100.7 64 99 C62.02 101.97 60.04 104.94 58 108 C57.67 107.01 57.34 106.02 57 105 C55.68 105.33 54.36 105.66 53 106 C52.67 104.35 52.34 102.7 52 101 C51.4225 101.804375 50.845 102.60875 50.25 103.4375 C48.01873107 105.97866739 47.25543229 106.65120368 44 107 C44.309375 107.5775 44.61875 108.155 44.9375 108.75 C46.78132118 112.65456251 46.78132118 112.65456251 47 115 C45.453125 117.18359375 45.453125 117.18359375 43.25 119.4375 C40.94086711 121.82554211 39.06870926 123.88106075 37.40234375 126.765625 C36.93957031 127.50296875 36.47679688 128.2403125 36 129 C33.3125 129.3125 33.3125 129.3125 31 129 C27 122.25 27 122.25 27 120 C23.7 119.67 20.4 119.34 17 119 C17 121.64 17 124.28 17 127 C12.71 127 8.42 127 4 127 C4 107.86 4 88.72 4 69 C2.35 69 0.7 69 -1 69 C-1.99 68.01 -2.98 67.02 -4 66 C-4.33 87.12 -4.66 108.24 -5 130 C-6.32 130 -7.64 130 -9 130 C-9.33 108.55 -9.66 87.1 -10 65 C-11.65 64.67 -13.3 64.34 -15 64 C-15.66 65.32 -16.32 66.64 -17 68 C-18.65 67.67 -20.3 67.34 -22 67 C-22 86.47 -22 105.94 -22 126 C-22.99 126 -23.98 126 -25 126 C-25 107.52 -25 89.04 -25 70 C-26.98 70 -28.96 70 -31 70 C-32.875 68.9375 -32.875 68.9375 -34 67 C-34.1875 63.3125 -34.1875 63.3125 -34 60 C-34.763125 59.731875 -35.52625 59.46375 -36.3125 59.1875 C-40.52744887 57.32508073 -40.52744887 57.32508073 -42 55 C-42.39844826 51.91202598 -42.62176768 49.95775468 -42 47 C-39.63077879 44.08924251 -37.13684065 42.10114309 -34.125 39.875 C-31.72185166 37.25760076 -31.72185166 37.25760076 -32.12109375 34.484375 C-32.26675781 33.54078125 -32.41242187 32.5971875 -32.5625 31.625 C-33.28894303 26.6010015 -33.28894303 26.6010015 -31.92578125 23.765625 C-29.51804227 20.83024549 -27.76625189 19.24986475 -24.125 18.0625 C-23.42375 18.041875 -22.7225 18.02125 -22 18 C-22.103125 17.01 -22.20625 16.02 -22.3125 15 C-22.3125 10.20205647 -20.11944646 6.54307499 -17 3 C-11.67926402 -0.91627775 -6.38880067 -1.06480011 0 0 Z " fill="#EEEFED" transform="translate(58,20)"/>
<path d="M0 0 C4.07524365 2.23435773 6.45018487 5.1752773 9 9 C9.25760279 11.69452521 9.08900053 14.28548375 9 17 C10.051875 16.938125 11.10375 16.87625 12.1875 16.8125 C16.21353023 17.01050149 17.85623579 17.57481047 21 20 C23.01696222 23.02544334 23.25811096 23.61067382 23.1875 27 C23.18105469 27.680625 23.17460938 28.36125 23.16796875 29.0625 C23 31 23 31 22 34 C22.66 34.495 23.32 34.99 24 35.5 C26.32884499 38.41105624 26.51217356 40.33948585 26.33984375 44.02734375 C25.8616618 46.80299758 24.67431053 48.76758596 23 51 C23.680625 51.515625 24.36125 52.03125 25.0625 52.5625 C27 55 27 55 26.875 58.625 C26 62 26 62 24 64 C21.66666667 64.33333333 19.33333333 64.66666667 17 65 C16.34 65.66 15.68 66.32 15 67 C9.66666667 67.33333333 9.66666667 67.33333333 7 66 C7 86.13 7 106.26 7 127 C6.01 127 5.02 127 4 127 C4 107.86 4 88.72 4 69 C2.35 69 0.7 69 -1 69 C-1.99 68.01 -2.98 67.02 -4 66 C-4.33 87.12 -4.66 108.24 -5 130 C-6.32 130 -7.64 130 -9 130 C-9.33 108.55 -9.66 87.1 -10 65 C-11.65 64.67 -13.3 64.34 -15 64 C-15.66 65.32 -16.32 66.64 -17 68 C-18.65 67.67 -20.3 67.34 -22 67 C-22 86.47 -22 105.94 -22 126 C-22.99 126 -23.98 126 -25 126 C-25 107.52 -25 89.04 -25 70 C-26.98 70 -28.96 70 -31 70 C-32.875 68.9375 -32.875 68.9375 -34 67 C-34.1875 63.3125 -34.1875 63.3125 -34 60 C-34.763125 59.731875 -35.52625 59.46375 -36.3125 59.1875 C-40.52744887 57.32508073 -40.52744887 57.32508073 -42 55 C-42.39844826 51.91202598 -42.62176768 49.95775468 -42 47 C-39.63077879 44.08924251 -37.13684065 42.10114309 -34.125 39.875 C-31.72185166 37.25760076 -31.72185166 37.25760076 -32.12109375 34.484375 C-32.26675781 33.54078125 -32.41242187 32.5971875 -32.5625 31.625 C-33.28894303 26.6010015 -33.28894303 26.6010015 -31.92578125 23.765625 C-29.51804227 20.83024549 -27.76625189 19.24986475 -24.125 18.0625 C-23.42375 18.041875 -22.7225 18.02125 -22 18 C-22.103125 17.01 -22.20625 16.02 -22.3125 15 C-22.3125 10.20205647 -20.11944646 6.54307499 -17 3 C-11.67926402 -0.91627775 -6.38880067 -1.06480011 0 0 Z " fill="#91C872" transform="translate(58,20)"/>
<path d="M0 0 C2.5625 -0.25 2.5625 -0.25 5 0 C6 1 6 1 6.12025452 3.58790588 C6.11803391 4.74040329 6.11581329 5.8929007 6.11352539 7.08032227 C6.11344986 8.38159561 6.11337433 9.68286896 6.11329651 11.02357483 C6.10818909 12.45451902 6.10297308 13.88546282 6.09765625 15.31640625 C6.09579203 16.7722926 6.09436815 18.22817957 6.09336853 19.68406677 C6.08954365 23.52279379 6.07971364 27.36148319 6.06866455 31.20019531 C6.05844978 35.11457816 6.05387077 39.02896706 6.04882812 42.94335938 C6.03809134 50.62892343 6.02101529 58.31445645 6 66 C7.32 66 8.64 66 10 66 C10 44.55 10 23.1 10 1 C11.32 1.99 12.64 2.98 14 4 C16.475 4.495 16.475 4.495 19 5 C19 24.14 19 43.28 19 63 C19.99 62.67 20.98 62.34 22 62 C23.56118428 61.93259135 25.1250252 61.91485544 26.6875 61.9375 C27.89986328 61.95103516 27.89986328 61.95103516 29.13671875 61.96484375 C29.75160156 61.97644531 30.36648437 61.98804688 31 62 C31.33 59.69 31.66 57.38 32 55 C35.48003995 54.89373924 38.65383277 54.9850488 42 56 C43.51389095 57.98993031 44.2575991 59.8528971 45.12890625 62.1875 C45.89627551 64.32502689 45.89627551 64.32502689 48.75 65 C49.4925 65 50.235 65 51 65 C51.36738281 63.91138672 51.36738281 63.91138672 51.7421875 62.80078125 C53.14051207 59.68712063 54.81296221 57.68599245 57.125 55.1875 C57.84945312 54.39730469 58.57390625 53.60710937 59.3203125 52.79296875 C59.87460938 52.20128906 60.42890625 51.60960937 61 51 C60.505 49.88625 60.505 49.88625 60 48.75 C59 46 59 46 59 42 C59.99 41.01 59.99 41.01 61 40 C61 40.66 61 41.32 61 42 C61.78375 41.195625 62.5675 40.39125 63.375 39.5625 C66 37 66 37 68 36 C68 37.65 68 39.3 68 41 C69.32 41 70.64 41 72 41 C72.33 41.66 72.66 42.32 73 43 C73.63228516 42.02546875 73.63228516 42.02546875 74.27734375 41.03125 C74.82519531 40.1959375 75.37304688 39.360625 75.9375 38.5 C76.75541016 37.24703125 76.75541016 37.24703125 77.58984375 35.96875 C78.05519531 35.3190625 78.52054687 34.669375 79 34 C79.33 34 79.66 34 80 34 C80 35.98 80 37.96 80 40 C80.66 40 81.32 40 82 40 C82.28875 39.360625 82.5775 38.72125 82.875 38.0625 C84 36 84 36 86 35 C86.495 37.475 86.495 37.475 87 40 C88.65 39.34 90.3 38.68 92 38 C91.20634267 42.40920738 90.5503809 44.88188672 86.9375 47.625 C75.97585977 56.16089104 68.66276816 71.85526547 64.4140625 84.71875 C64.14803223 85.52248047 63.88200195 86.32621094 63.60791016 87.15429688 C63.30699463 88.06791992 63.30699463 88.06791992 63 89 C58.87575151 89.20562492 54.75284074 89.32840389 50.625 89.4375 C48.89056641 89.52547852 48.89056641 89.52547852 47.12109375 89.61523438 C38.20237925 89.79159314 33.77426242 87.58952936 27 82 C10.69334169 71.39071846 -9.36641828 65.08188592 -28 60 C-28 59.67 -28 59.34 -28 59 C-22.06 59 -16.12 59 -10 59 C-10 59.99 -10 60.98 -10 62 C-9.01 62 -8.02 62 -7 62 C-7 42.53 -7 23.06 -7 3 C-5.35 3 -3.7 3 -2 3 C-1.34 2.01 -0.68 1.02 0 0 Z " fill="#ABC57F" transform="translate(43,84)"/>
<path d="M0 0 C4.07524365 2.23435773 6.45018487 5.1752773 9 9 C9.25760279 11.69452521 9.08900053 14.28548375 9 17 C10.051875 16.938125 11.10375 16.87625 12.1875 16.8125 C16.21353023 17.01050149 17.85623579 17.57481047 21 20 C23.54014875 23.81022313 23.58606955 26.53470816 23 31 C21.875 33 21.875 33 20 34 C17.0625 34.5 17.0625 34.5 14 34 C11.75 31.5625 11.75 31.5625 10 29 C6.83013832 27.41506916 3.45967739 27.7059958 0 28 C-2.40557853 28.86265968 -2.40557853 28.86265968 -4 30 C-4 28.68 -4 27.36 -4 26 C-5.98 26 -7.96 26 -10 26 C-9.97679688 26.91523437 -9.95359375 27.83046875 -9.9296875 28.7734375 C-9.90261719 30.55621094 -9.90261719 30.55621094 -9.875 32.375 C-9.85179688 33.55835938 -9.82859375 34.74171875 -9.8046875 35.9609375 C-10 39 -10 39 -12 41 C-12.31923475 43.33560151 -12.31923475 43.33560151 -12.25 45.9375 C-12.25515625 46.81277344 -12.2603125 47.68804687 -12.265625 48.58984375 C-12.15833837 51.26105634 -12.15833837 51.26105634 -10 54 C-11.0625 56.5 -11.0625 56.5 -13 59 C-16.375 59.5625 -16.375 59.5625 -20 59 C-21.6825613 57.68678142 -23.34997172 56.35386936 -25 55 C-25.99 55.020625 -26.98 55.04125 -28 55.0625 C-31 55 -31 55 -33.8125 52.5625 C-34.534375 51.716875 -35.25625 50.87125 -36 50 C-36.33 49.67 -36.66 49.34 -37 49 C-37.375 45.75 -37.375 45.75 -37 42 C-36.154375 41.2575 -35.30875 40.515 -34.4375 39.75 C-31.69774752 37.29891735 -31.69774752 37.29891735 -32.1015625 34.4921875 C-32.25367188 33.54601563 -32.40578125 32.59984375 -32.5625 31.625 C-33.28894303 26.6010015 -33.28894303 26.6010015 -31.92578125 23.765625 C-29.51804227 20.83024549 -27.76625189 19.24986475 -24.125 18.0625 C-23.42375 18.041875 -22.7225 18.02125 -22 18 C-22.103125 17.01 -22.20625 16.02 -22.3125 15 C-22.3125 10.20205647 -20.11944646 6.54307499 -17 3 C-11.67926402 -0.91627775 -6.38880067 -1.06480011 0 0 Z " fill="#2E9750" transform="translate(58,20)"/>
<path d="M0 0 C0.33 0 0.66 0 1 0 C1 1.98 1 3.96 1 6 C1.66 6 2.32 6 3 6 C3.28875 5.360625 3.5775 4.72125 3.875 4.0625 C5 2 5 2 7 1 C7.495 3.475 7.495 3.475 8 6 C9.65 5.34 11.3 4.68 13 4 C12.20634267 8.40920738 11.5503809 10.88188672 7.9375 13.625 C-4.39100692 23.22527783 -11.25395855 40.76187564 -16 55 C-24.58 55 -33.16 55 -42 55 C-41.01 54.505 -41.01 54.505 -40 54 C-39.39397335 51.63804589 -39.39397335 51.63804589 -39 49 C-38.67516582 47.66457061 -38.34333867 46.33079204 -38 45 C-45.03850068 38.42053198 -52.4022437 34.06715096 -61.9921875 32.45703125 C-64.21887603 31.95017803 -66.00090354 31.08919381 -68 30 C-68 29.01 -68 28.02 -68 27 C-65.36 27 -62.72 27 -60 27 C-60 27.66 -60 28.32 -60 29 C-59.01 28.67 -58.02 28.34 -57 28 C-55.43881572 27.93259135 -53.8749748 27.91485544 -52.3125 27.9375 C-51.10013672 27.95103516 -51.10013672 27.95103516 -49.86328125 27.96484375 C-49.24839844 27.97644531 -48.63351563 27.98804688 -48 28 C-47.67 25.69 -47.34 23.38 -47 21 C-43.51996005 20.89373924 -40.34616723 20.9850488 -37 22 C-35.48610905 23.98993031 -34.7424009 25.8528971 -33.87109375 28.1875 C-33.10372449 30.32502689 -33.10372449 30.32502689 -30.25 31 C-29.5075 31 -28.765 31 -28 31 C-27.75507812 30.27425781 -27.51015625 29.54851562 -27.2578125 28.80078125 C-25.85948793 25.68712063 -24.18703779 23.68599245 -21.875 21.1875 C-21.15054688 20.39730469 -20.42609375 19.60710937 -19.6796875 18.79296875 C-19.12539062 18.20128906 -18.57109375 17.60960937 -18 17 C-18.495 15.88625 -18.495 15.88625 -19 14.75 C-20 12 -20 12 -20 8 C-19.34 7.34 -18.68 6.68 -18 6 C-18 6.66 -18 7.32 -18 8 C-17.21625 7.195625 -16.4325 6.39125 -15.625 5.5625 C-13 3 -13 3 -11 2 C-11 3.65 -11 5.3 -11 7 C-9.68 7 -8.36 7 -7 7 C-6.505 7.99 -6.505 7.99 -6 9 C-5.57847656 8.3503125 -5.15695313 7.700625 -4.72265625 7.03125 C-3.90087891 5.77828125 -3.90087891 5.77828125 -3.0625 4.5 C-2.24458984 3.24703125 -2.24458984 3.24703125 -1.41015625 1.96875 C-0.94480469 1.3190625 -0.47945313 0.669375 0 0 Z " fill="#F7E7BA" transform="translate(122,118)"/>
<path d="M0 0 C0.99 0.33 1.98 0.66 3 1 C2.33333333 4.33333333 1.66666667 7.66666667 1 11 C5.30031962 12.17281444 8.62908604 11.66674959 13 11 C15.67397837 10.91555858 18.32369261 10.95304724 21 11 C17.87351251 13.08432499 14.94269132 14.28558611 11.4375 15.625 C10.28121094 16.07101563 9.12492187 16.51703125 7.93359375 16.9765625 C5 18 5 18 3 18 C3 18.66 3 19.32 3 20 C1.02 20.66 -0.96 21.32 -3 22 C1.95 22.33 6.9 22.66 12 23 C12.66 21.68 13.32 20.36 14 19 C14.66 19.33 15.32 19.66 16 20 C15.67 20.66 15.34 21.32 15 22 C17.97 22 20.94 22 24 22 C24 22.99 24 23.98 24 25 C20.37 25 16.74 25 13 25 C9.74073249 32.6731095 7.2082889 39.61163812 7 48 C6.01 48 5.02 48 4 48 C4.33 43.71 4.66 39.42 5 35 C3.35 36.65 1.7 38.3 0 40 C-3 39 -3 39 -5 36 C-5.99 36 -6.98 36 -8 36 C-7.505 38.475 -7.505 38.475 -7 41 C-10 43 -10 43 -13 43 C-12.7525 41.824375 -12.7525 41.824375 -12.5 40.625 C-11.73262437 36.60126409 -11.73262437 36.60126409 -14 33 C-14.37511719 33.48210937 -14.75023437 33.96421875 -15.13671875 34.4609375 C-19.45337925 39.78880562 -19.45337925 39.78880562 -22.75 41.0625 C-25.36413861 41.84271635 -25.36413861 41.84271635 -26.3125 45.125 C-26.539375 46.07375 -26.76625 47.0225 -27 48 C-27.66 48 -28.32 48 -29 48 C-28.855625 47.37351563 -28.71125 46.74703125 -28.5625 46.1015625 C-28.376875 45.28429687 -28.19125 44.46703125 -28 43.625 C-27.814375 42.81289062 -27.62875 42.00078125 -27.4375 41.1640625 C-26.93394761 39.04125049 -26.93394761 39.04125049 -27 37 C-28.32 37 -29.64 37 -31 37 C-31.33 35.68 -31.66 34.36 -32 33 C-32.45375 33.66 -32.9075 34.32 -33.375 35 C-33.91125 35.66 -34.4475 36.32 -35 37 C-35.66 37 -36.32 37 -37 37 C-37.495 34.525 -37.495 34.525 -38 32 C-40.97 36.455 -40.97 36.455 -44 41 C-44.495 39.515 -44.495 39.515 -45 38 C-46.98 38.495 -46.98 38.495 -49 39 C-49.33 37.35 -49.66 35.7 -50 34 C-50.61875 34.825 -51.2375 35.65 -51.875 36.5 C-52.57625 37.325 -53.2775 38.15 -54 39 C-54.66 39 -55.32 39 -56 39 C-56.495 37.515 -56.495 37.515 -57 36 C-54.69 33.69 -52.38 31.38 -50 29 C-49.01 29.66 -48.02 30.32 -47 31 C-47.33 32.98 -47.66 34.96 -48 37 C-45.60510457 36.25675659 -44.29222384 35.52942646 -43.06640625 33.30859375 C-42.32780077 31.55926499 -41.65950315 29.78065851 -41 28 C-38 28 -38 28 -36.12109375 28.671875 C-33.027375 29.15046133 -31.64953235 27.92419659 -29.0625 26.25 C-28.22847656 25.71890625 -27.39445312 25.1878125 -26.53515625 24.640625 C-25.69855469 24.09921875 -24.86195313 23.5578125 -24 23 C-22.3368035 21.99423901 -20.67113417 20.99251618 -19 20 C-20.32 19.67 -21.64 19.34 -23 19 C-23 17.68 -23 16.36 -23 15 C-23.99 15 -24.98 15 -26 15 C-26.33 15.99 -26.66 16.98 -27 18 C-27.99 18 -28.98 18 -30 18 C-29.58411954 11.80481527 -28.39748106 6.73310689 -26 1 C-24.68 1 -23.36 1 -22 1 C-21.01 3.97 -20.02 6.94 -19 10 C-18.855625 8.700625 -18.71125 7.40125 -18.5625 6.0625 C-18.125 2.125 -18.125 2.125 -17 1 C-14.32941149 0.85884839 -11.67567762 0.95752893 -9 1 C-7.28533964 4.42932071 -7.94595944 8.21716065 -8 12 C-7.67 8.7 -7.34 5.4 -7 2 C-3 1 -3 1 -1 1 C-0.67 0.67 -0.34 0.34 0 0 Z " fill="#E4D8B2" transform="translate(160,87)"/>
<path d="M0 0 C0.66 0.33 1.32 0.66 2 1 C1.48050781 1.54527344 0.96101563 2.09054688 0.42578125 2.65234375 C-4.29205221 7.75388271 -7.93348415 12.76376826 -11 19 C-9.06280622 19.05406122 -7.12518079 19.09282025 -5.1875 19.125 C-4.10855469 19.14820312 -3.02960938 19.17140625 -1.91796875 19.1953125 C1.19402868 19.23023717 1.19402868 19.23023717 4 17 C3.773125 17.7425 3.54625 18.485 3.3125 19.25 C2.70523302 22.05914993 2.70523302 22.05914993 4.4375 24.3125 C4.953125 24.869375 5.46875 25.42625 6 26 C4.4512456 29.48672455 2.35487655 32.18554031 -0.0625 35.125 C-2.80448747 38.38551023 -2.80448747 38.38551023 -5 42 C-6.65 42 -8.3 42 -10 42 C-14 35.25 -14 35.25 -14 33 C-17.3 32.67 -20.6 32.34 -24 32 C-24 34.64 -24 37.28 -24 40 C-27.3 39.67 -30.6 39.34 -34 39 C-34.10883596 36.62374823 -34.18766696 34.25256024 -34.25 31.875 C-34.28351563 31.20984375 -34.31703125 30.5446875 -34.3515625 29.859375 C-34.42110112 26.31290555 -33.92246478 23.81290414 -32.5625 20.53125 C-29.78600114 17.78861088 -29.34346034 17.60718137 -25.671875 17.4140625 C-24.03022438 17.45377985 -22.38909054 17.52511792 -20.75 17.625 C-19.90953125 17.65207031 -19.0690625 17.67914063 -18.203125 17.70703125 C-16.13431366 17.77755891 -14.06682607 17.88517633 -12 18 C-11.61134766 16.66001953 -11.61134766 16.66001953 -11.21484375 15.29296875 C-10.01646841 12.04463946 -8.72845075 9.98151028 -6.5625 7.3125 C-5.66724609 6.19294922 -5.66724609 6.19294922 -4.75390625 5.05078125 C-3.23650366 3.27653546 -1.68031832 1.61865526 0 0 Z " fill="#3F7188" transform="translate(99,107)"/>
<path d="M0 0 C0.5625 1.9375 0.5625 1.9375 1 4 C0 5 0 5 -2.5625 5.0625 C-3.7690625 5.0315625 -3.7690625 5.0315625 -5 5 C-5 5.66 -5 6.32 -5 7 C-1.535 6.505 -1.535 6.505 2 6 C2 4.02 2 2.04 2 0 C4.97 0 7.94 0 11 0 C11.495 1.485 11.495 1.485 12 3 C12.721875 2.319375 13.44375 1.63875 14.1875 0.9375 C17 -1 17 -1 19.625 -0.9375 C22.19411839 0.07662568 23.27776587 0.86910014 25 3 C25.86430771 6.78134623 25.86065771 10.52970975 23.875 13.921875 C22.5 15.5625 22.5 15.5625 20 18 C15.25 17.25 15.25 17.25 13 15 C12.34 15.66 11.68 16.32 11 17 C9.66400079 16.67751743 8.33106622 16.34227417 7 16 C4.31850007 16.38567131 4.31850007 16.38567131 2 17 C1.67 16.34 1.34 15.68 1 15 C0.34 15.66 -0.32 16.32 -1 17 C-3.875 17.125 -3.875 17.125 -7 17 C-8.32 17 -9.64 17 -11 17 C-11.99 17 -12.98 17 -14 17 C-14 16.01 -14 15.02 -14 14 C-15.32 14 -16.64 14 -18 14 C-18.33 14.99 -18.66 15.98 -19 17 C-19.99 17 -20.98 17 -22 17 C-21.6130276 11.11535081 -20.9177305 6.18707644 -18 1 C-16.68 0.67 -15.36 0.34 -14 0 C-13.01 2.97 -12.02 5.94 -11 9 C-10.7525 7.906875 -10.505 6.81375 -10.25 5.6875 C-9 2 -9 2 -7.1875 0 C-4.39571626 -1.27624399 -2.88563065 -0.88172048 0 0 Z " fill="#547F5B" transform="translate(90,88)"/>
<path d="M0 0 C1.65 0 3.3 0 5 0 C5 19.47 5 38.94 5 59 C1.37 59 -2.26 59 -6 59 C-6 40.85 -6 22.7 -6 4 C-4.35 3.34 -2.7 2.68 -1 2 C-0.67 1.34 -0.34 0.68 0 0 Z " fill="#FBFCFB" transform="translate(43,84)"/>
<path d="M0 0 C1.32 0 2.64 0 4 0 C4.33 2.64 4.66 5.28 5 8 C5.556875 7.505 6.11375 7.01 6.6875 6.5 C9.41508925 4.73075292 10.80848491 4.5800638 14 5 C14.66 5.66 15.32 6.32 16 7 C19.32901247 4.78065836 19.75023244 3.65316671 21 0 C22.32 0 23.64 0 25 0 C25.02684312 2.81256281 25.04676188 5.62487241 25.0625 8.4375 C25.07087891 9.23994141 25.07925781 10.04238281 25.08789062 10.86914062 C25.0965143 12.91295221 25.0522815 14.95683902 25 17 C24 18 24 18 20.625 18.0625 C19.42875 18.041875 18.2325 18.02125 17 18 C16.01 18 15.02 18 14 18 C10.66666667 18 7.33333333 18 4 18 C2.98808594 18.02320312 1.97617188 18.04640625 0.93359375 18.0703125 C-0.79697266 18.09738281 -0.79697266 18.09738281 -2.5625 18.125 C-3.71878906 18.14820312 -4.87507813 18.17140625 -6.06640625 18.1953125 C-9 18 -9 18 -11 16 C-11 15.01 -11 14.02 -11 13 C-12.65 13.33 -14.3 13.66 -16 14 C-16.33 15.32 -16.66 16.64 -17 18 C-17.99 18 -18.98 18 -20 18 C-20.02684679 15.35409986 -20.04676357 12.70846904 -20.0625 10.0625 C-20.07087891 9.30775391 -20.07925781 8.55300781 -20.08789062 7.77539062 C-20.09652441 5.85005687 -20.05224333 3.92464419 -20 2 C-19 1 -19 1 -15.5625 0.75 C-14.386875 0.8325 -13.21125 0.915 -12 1 C-10 4 -10 4 -10 7 C-9.01 6.34 -8.02 5.68 -7 5 C-4.3125 5.375 -4.3125 5.375 -2 6 C-1.34 4.02 -0.68 2.04 0 0 Z " fill="#474646" transform="translate(108,62)"/>
<path d="M0 0 C0.33 0 0.66 0 1 0 C1 1.65 1 3.3 1 5 C2.97536745 4.65213292 2.97536745 4.65213292 5 4 C5.33 3.34 5.66 2.68 6 2 C7.32 2 8.64 2 10 2 C10 2.99 10 3.98 10 5 C11.98 4.34 13.96 3.68 16 3 C16.33 3.33 16.66 3.66 17 4 C21.03160191 4.26293056 22.55892734 4.29404844 26 2 C26 2.99 26 3.98 26 5 C28.47266765 4.65555119 28.47266765 4.65555119 31 4 C31.33 3.34 31.66 2.68 32 2 C32 2.99 32 3.98 32 5 C33.98 4.01 35.96 3.02 38 2 C38.495 3.485 38.495 3.485 39 5 C37.96875 5.515625 36.9375 6.03125 35.875 6.5625 C31.06946502 9.33343347 27.02301038 13.09521366 25.1484375 18.41796875 C24.07199971 21.36179209 23.39295207 22.92969315 21 25 C17.17365145 25.81951668 13.30823424 25.80027397 9.41113281 25.66357422 C7.18824994 25.61244699 5.18375714 25.57451809 3 26 C0.85758226 28.35278459 0.85758226 28.35278459 0 31 C-1.44823511 28.10352978 -1.00519634 25.68835083 -0.87890625 22.4609375 C-0.83056641 21.15898438 -0.78222656 19.85703125 -0.73242188 18.515625 C-0.67589606 17.13541196 -0.61925392 15.75520368 -0.5625 14.375 C-0.50927707 12.98699781 -0.45653668 11.59897703 -0.40429688 10.2109375 C-0.27428837 6.80707859 -0.13931117 3.40348883 0 0 Z " fill="#F8F8F8" transform="translate(66,100)"/>
<path d="M0 0 C0 1.98 0 3.96 0 6 C1.2065625 6.185625 1.2065625 6.185625 2.4375 6.375 C3.283125 6.58125 4.12875 6.7875 5 7 C5.33 7.66 5.66 8.32 6 9 C6.350625 8.505 6.70125 8.01 7.0625 7.5 C9.94374289 5.26936034 12.47009026 5.80019379 16 6 C16 4.35 16 2.7 16 1 C17.65 0.67 19.3 0.34 21 0 C21 1.98 21 3.96 21 6 C21.9590625 6.2165625 21.9590625 6.2165625 22.9375 6.4375 C25 7 25 7 26 8 C26.07179964 9.51928038 26.08392007 11.04167482 26.0625 12.5625 C26.05347656 13.38878906 26.04445312 14.21507812 26.03515625 15.06640625 C26.02355469 15.70449219 26.01195312 16.34257813 26 17 C23.92446352 17.5534764 22.15634036 18 20 18 C19.34 18.165 18.68 18.33 18 18.5 C16 19 16 19 14 19 C13.030625 19.061875 12.06125 19.12375 11.0625 19.1875 C8 19 8 19 6.125 17.5 C5.75375 17.005 5.3825 16.51 5 16 C4.65839844 16.48984375 4.31679687 16.9796875 3.96484375 17.484375 C1.03854969 19.74163563 -1.90293103 19.35844315 -5.4375 19.25 C-6.75621094 19.23453125 -8.07492188 19.2190625 -9.43359375 19.203125 C-13 19 -13 19 -17 18 C-17 14.04 -17 10.08 -17 6 C-13.04 6 -9.08 6 -5 6 C-4.67 4.35 -4.34 2.7 -4 1 C-2 0 -2 0 0 0 Z " fill="#454444" transform="translate(137,37)"/>
<path d="M0 0 C0.2475 1.0725 0.495 2.145 0.75 3.25 C2.02944853 7.08834559 2.67596108 8.75402776 6 11 C7.155 11 8.31 11 9.5 11 C13 11 13 11 15 12.875 C15.66 13.57625 16.32 14.2775 17 15 C20.63543901 16.27765265 20.63543901 16.27765265 24 17 C24.33 18.32 24.66 19.64 25 21 C24.01 21 23.02 21 22 21 C21.34 22.32 20.68 23.64 20 25 C18.35 24.67 16.7 24.34 15 24 C15 43.47 15 62.94 15 83 C14.01 83 13.02 83 12 83 C12 64.52 12 46.04 12 27 C10.02 27 8.04 27 6 27 C4.125 25.9375 4.125 25.9375 3 24 C2.8125 20.3125 2.8125 20.3125 3 17 C2.236875 16.731875 1.47375 16.46375 0.6875 16.1875 C-3.52744887 14.32508073 -3.52744887 14.32508073 -5 12 C-5.64944649 5.18081181 -5.64944649 5.18081181 -3.625 1.5 C-2 0 -2 0 0 0 Z " fill="#95C44C" transform="translate(21,63)"/>
<path d="M0 0 C0.99 0.33 1.98 0.66 3 1 C2.49490966 3.52545168 1.99575022 6.01545376 1.3125 8.5 C0.93080526 11.55355795 1.67230331 13.26650682 3 16 C-1.82519933 18.66217894 -6.5945169 18 -12 18 C-12 16.68 -12 15.36 -12 14 C-12.66 14 -13.32 14 -14 14 C-14.33 15.32 -14.66 16.64 -15 18 C-17.31 18 -19.62 18 -22 18 C-22.33 17.01 -22.66 16.02 -23 15 C-23.99 15 -24.98 15 -26 15 C-26.33 15.99 -26.66 16.98 -27 18 C-27.99 18 -28.98 18 -30 18 C-29.58411954 11.80481527 -28.39748106 6.73310689 -26 1 C-24.68 1 -23.36 1 -22 1 C-21.01 3.97 -20.02 6.94 -19 10 C-18.855625 8.700625 -18.71125 7.40125 -18.5625 6.0625 C-18.125 2.125 -18.125 2.125 -17 1 C-14.32941149 0.85884839 -11.67567762 0.95752893 -9 1 C-7.28533964 4.42932071 -7.94595944 8.21716065 -8 12 C-7.67 8.7 -7.34 5.4 -7 2 C-3 1 -3 1 -1 1 C-0.67 0.67 -0.34 0.34 0 0 Z " fill="#466E4B" transform="translate(160,87)"/>
<path d="M0 0 C1.485 0.99 1.485 0.99 3 2 C4.65549531 2.38499891 6.3222433 2.72793135 8 3 C8.1777916 9.72567124 8.30019901 16.45073481 8.38452148 23.17822266 C8.41967892 25.46556238 8.46741517 27.7527453 8.52807617 30.03955078 C8.61319912 33.33144827 8.65273621 36.62126362 8.68359375 39.9140625 C8.71972275 40.93303619 8.75585175 41.95200989 8.79307556 43.00186157 C8.79691351 49.97443417 8.79691351 49.97443417 6.4302063 53.02020264 C1.88469828 57 1.88469828 57 0 57 C0 38.19 0 19.38 0 0 Z " fill="#FAFAF8" transform="translate(54,86)"/>
<path d="M0 0 C3.48024645 -0.10626707 6.65203316 -0.00861462 10 1 C11.56837271 2.97129719 12.29856228 4.7060869 13.0859375 7.08984375 C14.26036417 9.54409436 15.52062492 10.02559539 18 11 C17.36771484 12.03060547 17.36771484 12.03060547 16.72265625 13.08203125 C16.17480469 13.98308594 15.62695312 14.88414062 15.0625 15.8125 C14.51722656 16.70582031 13.97195312 17.59914062 13.41015625 18.51953125 C11.88990422 21.00703562 11.88990422 21.00703562 11 24 C8.0778196 22.64581884 5.69814496 21.07203863 3.1875 19.0625 C-2.4152398 14.81392794 -8.03681136 12.80485756 -14.88671875 11.52734375 C-17.13454525 10.96642586 -18.9702548 10.10421805 -21 9 C-21 8.01 -21 7.02 -21 6 C-18.36 6 -15.72 6 -13 6 C-13 6.66 -13 7.32 -13 8 C-12.01 7.67 -11.02 7.34 -10 7 C-8.43881572 6.93259135 -6.8749748 6.91485544 -5.3125 6.9375 C-4.10013672 6.95103516 -4.10013672 6.95103516 -2.86328125 6.96484375 C-1.94095703 6.98224609 -1.94095703 6.98224609 -1 7 C-0.67 4.69 -0.34 2.38 0 0 Z " fill="#9ACA7B" transform="translate(75,139)"/>
<path d="M0 0 C0.66 0.33 1.32 0.66 2 1 C1.67 1.66 1.34 2.32 1 3 C3.97 3 6.94 3 10 3 C10 3.99 10 4.98 10 6 C6.37 6 2.74 6 -1 6 C-4.25926751 13.6731095 -6.7917111 20.61163812 -7 29 C-7.99 29 -8.98 29 -10 29 C-9.67 24.71 -9.34 20.42 -9 16 C-10.65 17.65 -12.3 19.3 -14 21 C-17 20 -17 20 -19 17 C-19.99 17 -20.98 17 -22 17 C-21.67 18.65 -21.34 20.3 -21 22 C-24 24 -24 24 -27 24 C-26.835 23.21625 -26.67 22.4325 -26.5 21.625 C-25.99715583 18.9850681 -25.78113519 17.61484565 -26.67578125 15.1015625 C-27 13 -27 13 -25.85546875 11.1484375 C-25.30503906 10.56320313 -24.75460938 9.97796875 -24.1875 9.375 C-23.64480469 8.78460938 -23.10210937 8.19421875 -22.54296875 7.5859375 C-21.37122359 6.38156146 -20.18817262 5.18817262 -19 4 C-18.67 4.33 -18.34 4.66 -18 5 C-17.44828125 4.85691406 -16.8965625 4.71382813 -16.328125 4.56640625 C-13.41442848 3.85753713 -10.74542442 3.90494104 -7.75 3.9375 C-6.67234375 3.94652344 -5.5946875 3.95554687 -4.484375 3.96484375 C-3.66453125 3.97644531 -2.8446875 3.98804687 -2 4 C-1.34 2.68 -0.68 1.36 0 0 Z " fill="#C5C5C4" transform="translate(174,106)"/>
<path d="M0 0 C0 1.98 0 3.96 0 6 C0.9590625 6.2165625 0.9590625 6.2165625 1.9375 6.4375 C4 7 4 7 5 8 C5.07179964 9.51928038 5.08392007 11.04167482 5.0625 12.5625 C5.05347656 13.38878906 5.04445312 14.21507812 5.03515625 15.06640625 C5.02355469 15.70449219 5.01195312 16.34257813 5 17 C2.92446352 17.5534764 1.15634036 18 -1 18 C-1.99 18.2475 -1.99 18.2475 -3 18.5 C-5 19 -5 19 -7 19 C-7.969375 19.0825 -8.93875 19.165 -9.9375 19.25 C-13 19 -13 19 -14.875 17.375 C-16.32688252 14.30991468 -16.49926965 12.35223905 -16 9 C-14.4375 7.125 -14.4375 7.125 -12 6 C-8.25 5.8125 -8.25 5.8125 -5 6 C-5 4.35 -5 2.7 -5 1 C-3 0 -3 0 0 0 Z " fill="#454545" transform="translate(158,37)"/>
<path d="M0 0 C1.32 0 2.64 0 4 0 C4 21.45 4 42.9 4 65 C2.68 65 1.36 65 0 65 C0 43.55 0 22.1 0 0 Z " fill="#C16732" transform="translate(49,85)"/>
<path d="M0 0 C1.010625 0.0825 2.02125 0.165 3.0625 0.25 C3.7225 1.24 4.3825 2.23 5.0625 3.25 C5.866875 2.5075 5.866875 2.5075 6.6875 1.75 C9.66251066 -0.1289541 11.60652983 0.13637906 15.0625 0.25 C15.1434723 2.68816585 15.20296972 5.12364384 15.25 7.5625 C15.27513672 8.25279297 15.30027344 8.94308594 15.32617188 9.65429688 C15.40010056 14.75537593 15.40010056 14.75537593 13.71875 17.21875 C11.44475373 18.63463447 9.68488667 18.46262595 7.0625 18.25 C6.4025 16.27 5.7425 14.29 5.0625 12.25 C4.44375 12.415 3.825 12.58 3.1875 12.75 C0.71758983 13.33115533 -1.3858478 13.25 -3.9375 13.25 C-3.96436553 11.27090602 -3.98383375 9.29171029 -4 7.3125 C-4.01160156 6.21035156 -4.02320313 5.10820313 -4.03515625 3.97265625 C-3.89931457 0.18539017 -3.7996123 0.32337126 0 0 Z " fill="#373637" transform="translate(147.9375,66.75)"/>
<path d="M0 0 C0.99 0 1.98 0 3 0 C3 26.4 3 52.8 3 80 C2.01 80 1.02 80 0 80 C0 53.6 0 27.2 0 0 Z " fill="#AF715D" transform="translate(62,67)"/>
<path d="M0 0 C1.64165062 0.03971735 3.28278446 0.11105542 4.921875 0.2109375 C6.18257812 0.25154297 6.18257812 0.25154297 7.46875 0.29296875 C9.53756134 0.36349641 11.60504893 0.47111383 13.671875 0.5859375 C13.341875 2.5659375 13.011875 4.5459375 12.671875 6.5859375 C11.86363281 6.61171875 11.05539063 6.6375 10.22265625 6.6640625 C2.08972522 6.9411599 2.08972522 6.9411599 -4.328125 11.5859375 C-2.348125 12.2459375 -0.368125 12.9059375 1.671875 13.5859375 C1.671875 16.5559375 1.671875 19.5259375 1.671875 22.5859375 C-1.628125 22.2559375 -4.928125 21.9259375 -8.328125 21.5859375 C-8.43696096 19.20968573 -8.51579196 16.83849774 -8.578125 14.4609375 C-8.61164063 13.79578125 -8.64515625 13.130625 -8.6796875 12.4453125 C-8.74922612 8.89884305 -8.25058978 6.39884164 -6.890625 3.1171875 C-4.11412614 0.37454838 -3.67158534 0.19311887 0 0 Z " fill="#358FB4" transform="translate(73.328125,124.4140625)"/>
<path d="M0 0 C2.56911839 1.01412568 3.65276587 1.80660014 5.375 3.9375 C6.23930771 7.71884623 6.23565771 11.46720975 4.25 14.859375 C2.875 16.5 2.875 16.5 0.375 18.9375 C-2.99962715 18.39026317 -4.70735 17.8826 -7.625 15.9375 C-8.3125 12.3125 -8.3125 12.3125 -8.625 8.9375 C-10.275 8.9375 -11.925 8.9375 -13.625 8.9375 C-13.625 7.9475 -13.625 6.9575 -13.625 5.9375 C-12.635 5.9375 -11.645 5.9375 -10.625 5.9375 C-11.285 4.6175 -11.945 3.2975 -12.625 1.9375 C-10.975 1.9375 -9.325 1.9375 -7.625 1.9375 C-7.625 2.5975 -7.625 3.2575 -7.625 3.9375 C-6.903125 3.256875 -6.18125 2.57625 -5.4375 1.875 C-2.625 -0.0625 -2.625 -0.0625 0 0 Z " fill="#5C8462" transform="translate(109.625,87.0625)"/>
<path d="M0 0 C0 4.29 0 8.58 0 13 C1.65 13 3.3 13 5 13 C4.87625 11.6078125 4.87625 11.6078125 4.75 10.1875 C5 7 5 7 6.75 5.0625 C9 4 9 4 11.1875 4.25 C13 5 13 5 14 6 C14.1245486 7.64230364 14.17568524 9.29052276 14.1875 10.9375 C14.20167969 11.83339844 14.21585938 12.72929688 14.23046875 13.65234375 C14 16 14 16 12 18 C9.5625 18.125 9.5625 18.125 7 18 C5.33068803 18 3.66124363 18.00593153 1.9921875 18.03515625 C-0.00507614 18.06095117 -2.00282955 18.03221243 -4 18 C-5 17 -5 17 -5.09765625 13.40234375 C-5.0909822 11.91403133 -5.07902183 10.42573568 -5.0625 8.9375 C-5.05798828 8.17888672 -5.05347656 7.42027344 -5.04882812 6.63867188 C-5.0370068 4.75908129 -5.01907078 2.87953101 -5 1 C-3 0 -3 0 0 0 Z " fill="#464445" transform="translate(105,38)"/>
<path d="M0 0 C0.66 0 1.32 0 2 0 C1.67 0.721875 1.34 1.44375 1 2.1875 C-0.14656673 4.91472085 -0.14656673 4.91472085 0 7.625 C0 10 0 10 -2 13 C0.64 11.02 3.28 9.04 6 7 C3.9750604 11.04987921 2.60398526 12.45083969 -1 15 C-1.99 15.33 -2.98 15.66 -4 16 C-5.22520264 19.00847418 -5.22520264 19.00847418 -6 22 C-6.66 22 -7.32 22 -8 22 C-7.855625 21.37351563 -7.71125 20.74703125 -7.5625 20.1015625 C-7.376875 19.28429687 -7.19125 18.46703125 -7 17.625 C-6.814375 16.81289062 -6.62875 16.00078125 -6.4375 15.1640625 C-5.93394761 13.04125049 -5.93394761 13.04125049 -6 11 C-7.32 11 -8.64 11 -10 11 C-10.33 9.68 -10.66 8.36 -11 7 C-11.45375 7.66 -11.9075 8.32 -12.375 9 C-12.91125 9.66 -13.4475 10.32 -14 11 C-14.66 11 -15.32 11 -16 11 C-16.33 9.35 -16.66 7.7 -17 6 C-19.97 10.455 -19.97 10.455 -23 15 C-23.33 14.01 -23.66 13.02 -24 12 C-25.32 12.33 -26.64 12.66 -28 13 C-28.33 11.35 -28.66 9.7 -29 8 C-29.61875 8.825 -30.2375 9.65 -30.875 10.5 C-31.57625 11.325 -32.2775 12.15 -33 13 C-33.66 13 -34.32 13 -35 13 C-35.33 12.01 -35.66 11.02 -36 10 C-33.69 7.69 -31.38 5.38 -29 3 C-28.01 3.66 -27.02 4.32 -26 5 C-26.33 6.98 -26.66 8.96 -27 11 C-24.60510457 10.25675659 -23.29222384 9.52942646 -22.06640625 7.30859375 C-21.32780077 5.55926499 -20.65950315 3.78065851 -20 2 C-17 2 -17 2 -14.8125 4 C-13.9153125 4.99 -13.9153125 4.99 -13 6 C-12.01 5.34 -11.02 4.68 -10 4 C-9 5 -9 5 -8.9375 7.5625 C-8.958125 8.366875 -8.97875 9.17125 -9 10 C-7.86800647 9.0919838 -6.74467637 8.17316174 -5.625 7.25 C-4.99851563 6.73953125 -4.37203125 6.2290625 -3.7265625 5.703125 C-1.91687682 3.91800519 -0.99882545 2.32050356 0 0 Z " fill="#25231E" transform="translate(139,113)"/>
<path d="M0 0 C0.99 0 1.98 0 3 0 C3 20.79 3 41.58 3 63 C2.01 63 1.02 63 0 63 C0 42.21 0 21.42 0 0 Z " fill="#E8833B" transform="translate(33,83)"/>
<path d="M0 0 C2.64 0 5.28 0 8 0 C8 0.66 8 1.32 8 2 C9.11375 2.103125 10.2275 2.20625 11.375 2.3125 C19.5102163 3.33119552 27.26843426 6.38124386 35 9 C34.01 11.97 33.02 14.94 32 18 C28.91408034 16.45704017 26.81150604 15.16277368 24.1875 13.0625 C18.5847602 8.81392794 12.96318864 6.80485756 6.11328125 5.52734375 C3.86545475 4.96642586 2.0297452 4.10421805 0 3 C0 2.01 0 1.02 0 0 Z " fill="#99D6DC" transform="translate(54,145)"/>
<path d="M0 0 C1.08152344 -0.02578125 2.16304687 -0.0515625 3.27734375 -0.078125 C4.19644531 0.03015625 5.11554688 0.1384375 6.0625 0.25 C6.7225 1.24 7.3825 2.23 8.0625 3.25 C9.0525 3.91 10.0425 4.57 11.0625 5.25 C10.94898483 7.06325551 10.82137039 8.87563357 10.6875 10.6875 C10.61789063 11.69683594 10.54828125 12.70617187 10.4765625 13.74609375 C10.33992188 14.57238281 10.20328125 15.39867187 10.0625 16.25 C9.4025 16.58 8.7425 16.91 8.0625 17.25 C5.0625 11.5 5.0625 11.5 5.0625 9.25 C4.10150391 9.17652344 4.10150391 9.17652344 3.12109375 9.1015625 C-2.14946085 8.6459855 -6.90736288 7.8902621 -11.9375 6.25 C-5.76982811 0.08232811 -5.76982811 0.08232811 0 0 Z " fill="#969FA3" transform="translate(79.9375,130.75)"/>
<path d="M0 0 C0.66 0.33 1.32 0.66 2 1 C1.67 19.15 1.34 37.3 1 56 C4.63 56 8.26 56 12 56 C11.67 56.99 11.34 57.98 11 59 C9.783125 58.938125 8.56625 58.87625 7.3125 58.8125 C4.20479009 58.78538211 3.26800537 58.81662791 0.625 60.625 C-4.27818468 63.19333483 -9.60260248 60.73548479 -14.6484375 59.1875 C-16.77810819 58.48880678 -18.89281393 57.76347321 -21 57 C-21 56.67 -21 56.34 -21 56 C-15.06 56 -9.12 56 -3 56 C-3 56.99 -3 57.98 -3 59 C-2.01 59 -1.02 59 0 59 C0 39.53 0 20.06 0 0 Z " fill="#C8CC9A" transform="translate(36,87)"/>
<path d="M0 0 C0.721875 0.00257812 1.44375 0.00515625 2.1875 0.0078125 C2.909375 0.00523438 3.63125 0.00265625 4.375 0 C6.1875 0.1328125 6.1875 0.1328125 7.1875 1.1328125 C7.390625 3.09375 7.390625 3.09375 7.4375 5.5078125 C7.47617188 6.69503906 7.47617188 6.69503906 7.515625 7.90625 C7.11414268 10.63059432 6.36250111 11.49628254 4.1875 13.1328125 C3.5275 13.1328125 2.8675 13.1328125 2.1875 13.1328125 C1.8575 14.4528125 1.5275 15.7728125 1.1875 17.1328125 C-0.1325 17.1328125 -1.4525 17.1328125 -2.8125 17.1328125 C-2.83934679 14.48691236 -2.85926357 11.84128154 -2.875 9.1953125 C-2.88337891 8.44056641 -2.89175781 7.68582031 -2.90039062 6.90820312 C-2.90902441 4.98286937 -2.86474333 3.05745669 -2.8125 1.1328125 C-1.8125 0.1328125 -1.8125 0.1328125 0 0 Z " fill="#5D7A61" transform="translate(122.8125,87.8671875)"/>
<path d="M0 0 C3.5 0.125 3.5 0.125 4.5 1.125 C4.703125 3.0859375 4.703125 3.0859375 4.75 5.5 C4.78867188 6.68722656 4.78867188 6.68722656 4.828125 7.8984375 C4.42664268 10.62278182 3.67500111 11.48847004 1.5 13.125 C0.84 13.125 0.18 13.125 -0.5 13.125 C-0.83 14.445 -1.16 15.765 -1.5 17.125 C-2.49 17.125 -3.48 17.125 -4.5 17.125 C-4.52684679 14.47909986 -4.54676357 11.83346904 -4.5625 9.1875 C-4.57087891 8.43275391 -4.57925781 7.67800781 -4.58789062 6.90039062 C-4.59652441 4.97505687 -4.55224333 3.04964419 -4.5 1.125 C-3.5 0.125 -3.5 0.125 0 0 Z " fill="#303030" transform="translate(92.5,62.875)"/>
<path d="M0 0 C1.134375 0.020625 2.26875 0.04125 3.4375 0.0625 C2.4375 2.0625 2.4375 2.0625 1.4375 3.0625 C1.84679986 5.11646726 1.84679986 5.11646726 2.4375 7.0625 C1.1175 6.4025 -0.2025 5.7425 -1.5625 5.0625 C-1.5625 6.0525 -1.5625 7.0425 -1.5625 8.0625 C0.0875 8.0625 1.7375 8.0625 3.4375 8.0625 C3.7675 10.7025 4.0975 13.3425 4.4375 16.0625 C1.34430414 16.91579541 -1.35586115 17.0625 -4.5625 17.0625 C-4.58934679 14.41659986 -4.60926357 11.77096904 -4.625 9.125 C-4.63337891 8.37025391 -4.64175781 7.61550781 -4.65039062 6.83789062 C-4.65902441 4.91255687 -4.61474333 2.98714419 -4.5625 1.0625 C-3.5625 0.0625 -3.5625 0.0625 0 0 Z " fill="#3A6943" transform="translate(97.5625,87.9375)"/>
<path d="M0 0 C0.66 0.33 1.32 0.66 2 1 C1.67 1.66 1.34 2.32 1 3 C3.97 3 6.94 3 10 3 C10 3.99 10 4.98 10 6 C6.37 6 2.74 6 -1 6 C-4.25926751 13.6731095 -6.7917111 20.61163812 -7 29 C-7.99 29 -8.98 29 -10 29 C-9.34508665 20.87907449 -7.83735892 13.25941925 -4 6 C-6.41619823 5.74969023 -6.41619823 5.74969023 -9 6 C-9.99 7.485 -9.99 7.485 -11 9 C-11.66 8.67 -12.32 8.34 -13 8 C-12.67 7.67 -12.34 7.34 -12 7 C-14.97 6.505 -14.97 6.505 -18 6 C-14.5233662 3.85663839 -11.78770805 3.78722374 -7.75 3.875 C-6.67234375 3.89304687 -5.5946875 3.91109375 -4.484375 3.9296875 C-3.25460938 3.96449219 -3.25460938 3.96449219 -2 4 C-1.34 2.68 -0.68 1.36 0 0 Z " fill="#474747" transform="translate(174,106)"/>
<path d="M0 0 C1 1 1 1 1.1328125 3.46875 C1.13023437 4.4690625 1.12765625 5.469375 1.125 6.5 C1.12757813 7.5003125 1.13015625 8.500625 1.1328125 9.53125 C1 12 1 12 0 13 C-3.5 13.125 -3.5 13.125 -7 13 C-8.66684015 11.33315985 -8.21072764 9.34356931 -8.25 7.0625 C-8.27578125 6.16660156 -8.3015625 5.27070312 -8.328125 4.34765625 C-8.21984375 3.57292969 -8.1115625 2.79820313 -8 2 C-4.77786243 -0.14809171 -3.72224599 -0.29386153 0 0 Z " fill="#2F2F2F" transform="translate(142,67)"/>
<path d="M0 0 C1.66561399 1.66561399 1.17115945 3.65962705 1.1875 5.9375 C1.20167969 6.83339844 1.21585938 7.72929688 1.23046875 8.65234375 C1 11 1 11 -1 13 C-3.5 13.25 -3.5 13.25 -6 13 C-8.40346379 10.59653621 -8.32083747 9.86099805 -8.375 6.5625 C-8.27980132 2.33975875 -8.27980132 2.33975875 -6.25 -0.125 C-3.63534639 -1.14180974 -2.5640004 -1.06096568 0 0 Z " fill="#373737" transform="translate(118,43)"/>
<path d="M0 0 C1.98 0 3.96 0 6 0 C6 4.95 6 9.9 6 15 C4.02 15.99 4.02 15.99 2 17 C2 15.33333333 2 13.66666667 2 12 C0.68 11.67 -0.64 11.34 -2 11 C-2.05399736 9.54207116 -2.09279177 8.08357288 -2.125 6.625 C-2.15980469 5.40683594 -2.15980469 5.40683594 -2.1953125 4.1640625 C-2 2 -2 2 0 0 Z " fill="#252525" transform="translate(157,67)"/>
<path d="M0 0 C0 0.99 0 1.98 0 3 C0.6492959 4.34187818 1.31731862 5.67479497 2 7 C2.796875 8.8515625 2.796875 8.8515625 3 11 C1.48828125 13.18359375 1.48828125 13.18359375 -0.6875 15.4375 C-1.42355469 16.21867187 -2.15960938 16.99984375 -2.91796875 17.8046875 C-3.94857422 18.89136719 -3.94857422 18.89136719 -5 20 C-6.34972841 21.6534173 -7.693393 23.31229929 -9 25 C-8.52378715 22.85704217 -8.04583233 20.71470825 -7.55859375 18.57421875 C-7.20357159 16.93813762 -6.8795407 15.29478679 -6.59765625 13.64453125 C-5.56694761 7.94127678 -3.64795167 4.51194023 0 0 Z " fill="#8D9596" transform="translate(102,124)"/>
<path d="M0 0 C1.33332095 2.6666419 0.67102033 4.16680303 0 7 C2.97 7.33 5.94 7.66 9 8 C9 10.97 9 13.94 9 17 C5.7 16.67 2.4 16.34 -1 16 C-1.02685095 13.52076199 -1.04676547 11.0418116 -1.0625 8.5625 C-1.07506836 7.50192383 -1.07506836 7.50192383 -1.08789062 6.41992188 C-1.09653588 4.61306441 -1.05220011 2.80612397 -1 1 C-0.67 0.67 -0.34 0.34 0 0 Z " fill="#4D91A5" transform="translate(66,130)"/>
<path d="M0 0 C3.42474389 0.01285082 6.66966555 0.16473927 10 1 C12.1875 3.875 12.1875 3.875 13 7 C12.67 7.99 12.34 8.98 12 10 C6.06 9.01 6.06 9.01 0 8 C0 5.36 0 2.72 0 0 Z " fill="#F8FAF7" transform="translate(75,139)"/>
<path d="M0 0 C1.32 0.66 2.64 1.32 4 2 C4.4726477 10.19256018 4.4726477 10.19256018 2.5 13.5625 C2.005 14.036875 1.51 14.51125 1 15 C-1.31 14.34 -3.62 13.68 -6 13 C-6 11.02 -6 9.04 -6 7 C-5.34 6.67 -4.68 6.34 -4 6 C-3.67 7.65 -3.34 9.3 -3 11 C-2.34 11 -1.68 11 -1 11 C-1.48484276 6.35413108 -1.48484276 6.35413108 -3 2 C-2.01 1.34 -1.02 0.68 0 0 Z " fill="#4F7F57" transform="translate(111,89)"/>
<path d="M0 0 C0.85856655 3.4342662 0.97591583 5.61682513 0 9 C-1.60433809 8.52140759 -3.20846416 8.04210442 -4.8125 7.5625 C-5.70582031 7.29566406 -6.59914063 7.02882812 -7.51953125 6.75390625 C-9.35473055 6.19612127 -11.18033726 5.60655425 -13 5 C-13 4.34 -13 3.68 -13 3 C-8.70614007 -0.4887612 -5.28129105 -0.26854022 0 0 Z " fill="#9BCA79" transform="translate(47,145)"/>
<path d="M0 0 C3.520309 1.61743927 5.31119269 3.07120925 6.875 6.5625 C8 10 8 10 7 12 C4.1875 12.25 4.1875 12.25 1 12 C-1.63661642 9.71493243 -1.96494766 8.35052338 -2.3125 4.875 C-2 2 -2 2 0 0 Z " fill="#4B4A4A" transform="translate(144,44)"/>
<path d="M0 0 C2.11463022 0.35243837 4.03072093 1.01024031 6.0625 1.6875 C8.32110278 2.27712366 8.32110278 2.27712366 11 0 C10.8125 2.375 10.8125 2.375 10 5 C7.625 6.1875 7.625 6.1875 5 7 C4.01 7.66 3.02 8.32 2 9 C-0.6875 8.625 -0.6875 8.625 -3 8 C-2.25 2.25 -2.25 2.25 0 0 Z " fill="#A6A6A6" transform="translate(175,117)"/>
<path d="M0 0 C1.99954746 -0.04254356 4.00041636 -0.04080783 6 0 C7.58894072 1.58894072 7.16998411 3.24801424 7.1875 5.4375 C7.20167969 6.24058594 7.21585938 7.04367188 7.23046875 7.87109375 C7 10 7 10 5 12 C2.375 12.125 2.375 12.125 0 12 C0.309375 11.401875 0.61875 10.80375 0.9375 10.1875 C2.10209704 7.91043228 2.10209704 7.91043228 3 5 C2.34 5 1.68 5 1 5 C0.67 5.99 0.34 6.98 0 8 C0 5.36 0 2.72 0 0 Z " fill="#3C7647" transform="translate(123,88)"/>
<path d="M0 0 C1.32 0 2.64 0 4 0 C6.27678571 8.03571429 6.27678571 8.03571429 5 12 C3.02 12.33 1.04 12.66 -1 13 C-1.02686553 11.02090602 -1.04633375 9.04171029 -1.0625 7.0625 C-1.07410156 5.96035156 -1.08570313 4.85820313 -1.09765625 3.72265625 C-1 1 -1 1 0 0 Z " fill="#467B4F" transform="translate(134,88)"/>
<path d="M0 0 C0.33 0 0.66 0 1 0 C1.33 2.64 1.66 5.28 2 8 C2.66 8 3.32 8 4 8 C4 8.66 4 9.32 4 10 C4.66 10 5.32 10 6 10 C6.66 11.65 7.32 13.3 8 15 C7.01 15 6.02 15 5 15 C5 14.01 5 13.02 5 12 C3.68 12 2.36 12 1 12 C0.67 12.99 0.34 13.98 0 15 C-0.99 15 -1.98 15 -3 15 C-2.5547115 9.72684667 -1.91626837 4.98229776 0 0 Z " fill="#456E4B" transform="translate(71,90)"/>
<path d="M0 0 C1 2 1 2 1 5 C1.66 5.66 2.32 6.32 3 7 C1.8803014 8.00593243 0.7540588 9.0045849 -0.375 10 C-1.00148438 10.556875 -1.62796875 11.11375 -2.2734375 11.6875 C-4 13 -4 13 -6 13 C-7.75 11.3125 -7.75 11.3125 -9 9 C-8.1875 6.25 -8.1875 6.25 -7 4 C-6.67 4.66 -6.34 5.32 -6 6 C-5.195625 5.195625 -4.39125 4.39125 -3.5625 3.5625 C-2.375 2.375 -1.1875 1.1875 0 0 Z " fill="#FAFAF9" transform="translate(110,120)"/>
<path d="M0 0 C0.66 0 1.32 0 2 0 C2.4125 0.969375 2.825 1.93875 3.25 2.9375 C4.64899168 6.12260099 4.64899168 6.12260099 7.1875 6.875 C7.785625 6.91625 8.38375 6.9575 9 7 C8.67 8.65 8.34 10.3 8 12 C5.125 12.1875 5.125 12.1875 2 12 C-0.13586678 8.79619983 -0.23132175 7.98060033 -0.125 4.3125 C-0.10695313 3.50425781 -0.08890625 2.69601563 -0.0703125 1.86328125 C-0.04710938 1.24839844 -0.02390625 0.63351563 0 0 Z " fill="#407D4B" transform="translate(81,93)"/>
<path d="M0 0 C0.66 0.99 1.32 1.98 2 3 C2.99 3.33 3.98 3.66 5 4 C4.34 4 3.68 4 3 4 C3.02320312 4.91523437 3.04640625 5.83046875 3.0703125 6.7734375 C3.08835937 7.96195312 3.10640625 9.15046875 3.125 10.375 C3.14820312 11.55835937 3.17140625 12.74171875 3.1953125 13.9609375 C3 17 3 17 1 19 C0.731875 18.071875 0.46375 17.14375 0.1875 16.1875 C-0.91148371 13.23759634 -1.62418561 11.94384814 -4 10 C-3.525625 9.46375 -3.05125 8.9275 -2.5625 8.375 C-0.71813924 5.57157164 -0.37543153 3.30379742 0 0 Z " fill="#F4F8F1" transform="translate(84,60)"/>
<path d="M0 0 C1.98 0 3.96 0 6 0 C4.68 3.3 3.36 6.6 2 10 C-0.33333333 10 -2.66666667 10 -5 10 C-3.35 6.7 -1.7 3.4 0 0 Z " fill="#F8F8F7" transform="translate(165,111)"/>
<path d="M0 0 C2.64 0 5.28 0 8 0 C7.67 1.32 7.34 2.64 7 4 C5.68 3.67 4.36 3.34 3 3 C2.67 7.62 2.34 12.24 2 17 C1.34 17 0.68 17 0 17 C0 11.39 0 5.78 0 0 Z " fill="#406C47" transform="translate(143,88)"/>
<path d="M0 0 C0.66 0 1.32 0 2 0 C2 1.98 2 3.96 2 6 C3.65 6.33 5.3 6.66 7 7 C8.23076923 12.41538462 8.23076923 12.41538462 7.0625 15.375 C6.711875 15.91125 6.36125 16.4475 6 17 C5.34 16.67 4.68 16.34 4 16 C4.165 15.38125 4.33 14.7625 4.5 14.125 C5.07634644 12.03936614 5.07634644 12.03936614 5 10 C4.54625 10.495 4.0925 10.99 3.625 11.5 C2 13 2 13 0 13 C0 8.71 0 4.42 0 0 Z " fill="#202020" transform="translate(135,37)"/>
<path d="M0 0 C0.66 0 1.32 0 2 0 C1.71561048 1.89693861 1.42216208 3.79252027 1.125 5.6875 C0.96257812 6.74324219 0.80015625 7.79898438 0.6328125 8.88671875 C0.04106931 11.79794914 -0.8031806 14.28955607 -2 17 C-2.99 16.67 -3.98 16.34 -5 16 C-4.74515043 9.55230593 -4.31454432 4.96826315 0 0 Z " fill="#2B8BB6" transform="translate(95,132)"/>
<path d="M0 0 C0.33 1.32 0.66 2.64 1 4 C2.65 3.34 4.3 2.68 6 2 C4.55746343 5.36591866 2.66735273 7.51047079 0 10 C-3 9 -3 9 -5 6 C-5.99 5.67 -6.98 5.34 -8 5 C-5.31158141 2.74754119 -3.35358125 1.11786042 0 0 Z " fill="#545453" transform="translate(160,117)"/>
<path d="M0 0 C-3.08590555 2.05727037 -5.9934868 3.32318603 -9.4375 4.6875 C-10.57058594 5.14511719 -11.70367187 5.60273437 -12.87109375 6.07421875 C-15.90109784 6.97073681 -17.13270113 7.16241846 -20 6 C-19.67 4.68 -19.34 3.36 -19 2 C-12.56971459 0.67611771 -6.5705166 -0.24794402 0 0 Z " fill="#F3E5BA" transform="translate(181,98)"/>
<path d="M0 0 C1.98 0 3.96 0 6 0 C5 7.42857143 5 7.42857143 4 11 C2.68 11.33 1.36 11.66 0 12 C0 8.04 0 4.08 0 0 Z " fill="#AD773E" transform="translate(48,46)"/>
<path d="M0 0 C0.99 0.66 1.98 1.32 3 2 C2.67 3.98 2.34 5.96 2 8 C2.99 7.67 3.98 7.34 5 7 C5 7.99 5 8.98 5 10 C3.35 9.67 1.7 9.34 0 9 C0 7.68 0 6.36 0 5 C-0.928125 6.2375 -0.928125 6.2375 -1.875 7.5 C-2.57625 8.325 -3.2775 9.15 -4 10 C-4.66 10 -5.32 10 -6 10 C-6.33 9.01 -6.66 8.02 -7 7 C-4.69 4.69 -2.38 2.38 0 0 Z " fill="#454545" transform="translate(110,116)"/>
<path d="M0 0 C0.33 0 0.66 0 1 0 C1 2.97 1 5.94 1 9 C2.98 9.66 4.96 10.32 7 11 C6.67 12.65 6.34 14.3 6 16 C4.33388095 16.042721 2.66617115 16.04063832 1 16 C-0.8675318 14.1324682 -0.43234834 11.07522803 -0.625 8.5625 C-0.72039062 7.38816406 -0.81578125 6.21382813 -0.9140625 5.00390625 C-1 2 -1 2 0 0 Z " fill="#5B5A5A" transform="translate(154,69)"/>
<path d="M0 0 C0.33 0 0.66 0 1 0 C1 3.96 1 7.92 1 12 C1.66 12 2.32 12 3 12 C3.33 11.01 3.66 10.02 4 9 C4.66 9 5.32 9 6 9 C6.79953138 12.28696233 7.09658936 13.71023192 6 17 C4.02 17 2.04 17 0 17 C0 11.39 0 5.78 0 0 Z " fill="#343434" transform="translate(134,38)"/>
<path d="M0 0 C2.64 0 5.28 0 8 0 C8 0.66 8 1.32 8 2 C10.64 2.33 13.28 2.66 16 3 C16 3.33 16 3.66 16 4 C15.2575 4.144375 14.515 4.28875 13.75 4.4375 C11.1046175 4.89370276 11.1046175 4.89370276 9.125 5.75 C5.64154977 6.15981767 3.11947026 4.49974532 0 3 C0 2.01 0 1.02 0 0 Z " fill="#9DD4CB" transform="translate(54,145)"/>
<path d="M0 0 C0.99 0.33 1.98 0.66 3 1 C2.47229401 4.79948314 1.62859821 7.16920193 -1 10 C-1.99 10.33 -2.98 10.66 -4 11 C-4 8.03 -4 5.06 -4 2 C-2.68 1.34 -1.36 0.68 0 0 Z " fill="#4D8056" transform="translate(160,87)"/>
<path d="M0 0 C0.99 0 1.98 0 3 0 C3.05418326 2.08304538 3.09287551 4.16649768 3.125 6.25 C3.14820312 7.41015625 3.17140625 8.5703125 3.1953125 9.765625 C3.0103949 12.82786046 2.60823023 14.44202751 1 17 C1.99 17.33 2.98 17.66 4 18 C2.68 18 1.36 18 0 18 C0 12.06 0 6.12 0 0 Z " fill="#272626" transform="translate(108,62)"/>
<path d="M0 0 C2.97 0.33 5.94 0.66 9 1 C9 3.97 9 6.94 9 10 C8.01 9.34 7.02 8.68 6 8 C6 7.34 6 6.68 6 6 C5.34 6 4.68 6 4 6 C2.61061923 4.03852126 1.2739589 2.03833424 0 0 Z " fill="#2D7391" transform="translate(66,137)"/>
<path d="M0 0 C0 3 0 3 -2.375 5.5 C-3.674375 6.7375 -3.674375 6.7375 -5 8 C-7.49304155 11.73956233 -7.40180557 14.43114607 -7.65625 18.8203125 C-7.7696875 19.53960937 -7.883125 20.25890625 -8 21 C-8.66 21.33 -9.32 21.66 -10 22 C-9.83951172 20.64455078 -9.83951172 20.64455078 -9.67578125 19.26171875 C-9.55589844 18.08222656 -9.43601562 16.90273437 -9.3125 15.6875 C-9.18488281 14.51574219 -9.05726562 13.34398437 -8.92578125 12.13671875 C-8.69002215 9.01025381 -8.69002215 9.01025381 -10.48046875 7.08203125 C-11.23263672 6.54642578 -11.23263672 6.54642578 -12 6 C-10.948125 5.7525 -9.89625 5.505 -8.8125 5.25 C-5.1866459 4.23299214 -2.80089228 2.54626571 0 0 Z " fill="#1D546D" transform="translate(99,127)"/>
<path d="M0 0 C2.6875 0.3125 2.6875 0.3125 5 1 C4.01 2.32 3.02 3.64 2 5 C2.33 5.33 2.66 5.66 3 6 C3.04092937 8.33297433 3.04241723 10.66705225 3 13 C2.34 13 1.68 13 1 13 C0.87882812 12.36191406 0.75765625 11.72382812 0.6328125 11.06640625 C0.46523437 10.24011719 0.29765625 9.41382812 0.125 8.5625 C-0.03742188 7.73878906 -0.19984375 6.91507812 -0.3671875 6.06640625 C-0.57601562 5.38449219 -0.78484375 4.70257813 -1 4 C-1.66 3.67 -2.32 3.34 -3 3 C-1.8125 1.4375 -1.8125 1.4375 0 0 Z " fill="#528259" transform="translate(107,87)"/>
<path d="M0 0 C0.33 0 0.66 0 1 0 C1.33 2.64 1.66 5.28 2 8 C2.66 7.67 3.32 7.34 4 7 C4 10.3 4 13.6 4 17 C2.02 17 0.04 17 -2 17 C-2 15.35 -2 13.7 -2 12 C-1.67 12 -1.34 12 -1 12 C-0.67 8.04 -0.34 4.08 0 0 Z " fill="#636363" transform="translate(111,62)"/>
<path d="M0 0 C0.33 0 0.66 0 1 0 C1 5.28 1 10.56 1 16 C-0.65 16 -2.3 16 -4 16 C-4.625 14.125 -4.625 14.125 -5 12 C-4.34 11.34 -3.68 10.68 -3 10 C-2.01 10.66 -1.02 11.32 0 12 C0 11.01 0 10.02 0 9 C-0.66 9 -1.32 9 -2 9 C-1.34 6.03 -0.68 3.06 0 0 Z " fill="#282728" transform="translate(130,63)"/>
<path d="M0 0 C2.625 0.375 2.625 0.375 5 1 C5.33 2.98 5.66 4.96 6 7 C4.35 7 2.7 7 1 7 C1 6.34 1 5.68 1 5 C0.34 5 -0.32 5 -1 5 C-1.33 5.66 -1.66 6.32 -2 7 C-2.125 4.625 -2.125 4.625 -2 2 C-1.34 1.34 -0.68 0.68 0 0 Z " fill="#282727" transform="translate(101,67)"/>
<path d="M0 0 C0.33 0 0.66 0 1 0 C1 5.28 1 10.56 1 16 C-0.32 15.67 -1.64 15.34 -3 15 C-3 14.01 -3 13.02 -3 12 C-4.65 12 -6.3 12 -8 12 C-8 11.67 -8 11.34 -8 11 C-6.35 11 -4.7 11 -3 11 C-2.67 9.68 -2.34 8.36 -2 7 C-1.67 7.33 -1.34 7.66 -1 8 C-0.67 5.36 -0.34 2.72 0 0 Z " fill="#57775C" transform="translate(142,89)"/>
<path d="M0 0 C1.98 0 3.96 0 6 0 C6 4.95 6 9.9 6 15 C5.67 15 5.34 15 5 15 C4.67 12.03 4.34 9.06 4 6 C3.67 6.66 3.34 7.32 3 8 C2.34 8 1.68 8 1 8 C1.020625 7.236875 1.04125 6.47375 1.0625 5.6875 C1.12942841 2.89814214 1.12942841 2.89814214 0 0 Z " fill="#3E3E3E" transform="translate(157,67)"/>
<path d="M0 0 C0 2.64 0 5.28 0 8 C-2.64 8 -5.28 8 -8 8 C-6.98782798 4.96348393 -3.72802409 0 0 0 Z " fill="#3B8DA4" transform="translate(62,137)"/>
<path d="M0 0 C1.98 0 3.96 0 6 0 C6 3.63 6 7.26 6 11 C4 7 4 7 3 4 C0.98491642 3.26676204 0.98491642 3.26676204 -1 3 C-0.67 2.01 -0.34 1.02 0 0 Z " fill="#1B1B1B" transform="translate(146,43)"/>
<path d="M0 0 C1.65 0 3.3 0 5 0 C7.08901197 3.39464446 7.34361606 6.04841529 7 10 C6.34 10.66 5.68 11.32 5 12 C4.731875 11.360625 4.46375 10.72125 4.1875 10.0625 C3.11332248 7.66868314 3.11332248 7.66868314 0 7 C0.33 6.34 0.66 5.68 1 5 C1.66 5 2.32 5 3 5 C3.33 3.68 3.66 2.36 4 1 C2.68 0.67 1.36 0.34 0 0 Z " fill="#595959" transform="translate(117,67)"/>
<path d="M0 0 C1.98 0.99 3.96 1.98 6 3 C6 3.99 6 4.98 6 6 C4.68 5.67 3.36 5.34 2 5 C2 6.65 2 8.3 2 10 C3.98 10 5.96 10 8 10 C8 10.33 8 10.66 8 11 C5.66705225 11.04241723 3.33297433 11.04092937 1 11 C0 10 0 10 -0.09765625 7.71484375 C-0.08605469 6.79832031 -0.07445312 5.88179688 -0.0625 4.9375 C-0.05347656 4.01839844 -0.04445312 3.09929687 -0.03515625 2.15234375 C-0.02355469 1.44207031 -0.01195312 0.73179688 0 0 Z " fill="#494949" transform="translate(134,69)"/>
<path d="M0 0 C5.28 0 10.56 0 16 0 C12.68759039 2.20827308 10.93650463 2.69719195 7 3 C3.125 2.0625 3.125 2.0625 0 1 C0 0.67 0 0.34 0 0 Z " fill="#98C675" transform="translate(15,143)"/>
<path d="M0 0 C0.66 0.33 1.32 0.66 2 1 C-0.31883213 5.50884026 -3.06451569 7.93906776 -7 11 C-7 7.22089522 -6.00296038 6.53893899 -3.5 3.8125 C-2.8503125 3.09707031 -2.200625 2.38164063 -1.53125 1.64453125 C-1.0259375 1.10183594 -0.520625 0.55914062 0 0 Z " fill="#F2F2EC" transform="translate(144,116)"/>
<path d="M0 0 C0.66 0.33 1.32 0.66 2 1 C1.01 2.485 1.01 2.485 0 4 C0.33 4.99 0.66 5.98 1 7 C2.65 6.34 4.3 5.68 6 5 C4.3125 7.0625 4.3125 7.0625 2 9 C-0.75 8.75 -0.75 8.75 -3 8 C-2.25 2.25 -2.25 2.25 0 0 Z " fill="#212121" transform="translate(175,117)"/>
<path d="M0 0 C0.99 0.33 1.98 0.66 3 1 C3 2.65 3 4.3 3 6 C-0.75 7.125 -0.75 7.125 -3 6 C-2.625 3.5625 -2.625 3.5625 -2 1 C-1.34 0.67 -0.68 0.34 0 0 Z " fill="#4D7253" transform="translate(99,98)"/>
<path d="M0 0 C0.99 1.32 1.98 2.64 3 4 C2.2575 4.268125 1.515 4.53625 0.75 4.8125 C-1.86636554 5.94229421 -3.80187111 7.20893202 -6 9 C-6.33 7.35 -6.66 5.7 -7 4 C-4.69 2.68 -2.38 1.36 0 0 Z " fill="#F0EEE6" transform="translate(153,110)"/>
<path d="M0 0 C0.99 0.33 1.98 0.66 3 1 C2.4140625 7.15234375 2.4140625 7.15234375 2 9 C1.01 9.495 1.01 9.495 0 10 C-0.309375 9.05125 -0.61875 8.1025 -0.9375 7.125 C-1.87394742 4.13919592 -1.87394742 4.13919592 -3 2 C-2.01 1.34 -1.02 0.68 0 0 Z " fill="#3E6944" transform="translate(111,89)"/>
<path d="M0 0 C0.33 0 0.66 0 1 0 C1 4.62 1 9.24 1 14 C0.01 14 -0.98 14 -2 14 C-2.05437607 12.41705218 -2.09296271 10.83355744 -2.125 9.25 C-2.14820313 8.36828125 -2.17140625 7.4865625 -2.1953125 6.578125 C-1.99139502 3.8864142 -1.36551721 2.30095026 0 0 Z " fill="#AD7865" transform="translate(64,133)"/>
<path d="M0 0 C1.485 0.99 1.485 0.99 3 2 C2.67 3.98 2.34 5.96 2 8 C2.99 7.67 3.98 7.34 5 7 C5 7.99 5 8.98 5 10 C3.35 9.67 1.7 9.34 0 9 C0 6 0 3 0 0 Z " fill="#373635" transform="translate(110,116)"/>
<path d="M0 0 C2.31 0 4.62 0 7 0 C6.67 1.32 6.34 2.64 6 4 C4.68 3.67 3.36 3.34 2 3 C2 4.98 2 6.96 2 9 C1.67 9 1.34 9 1 9 C0.67 6.03 0.34 3.06 0 0 Z " fill="#377943" transform="translate(144,88)"/>
<path d="M0 0 C0.33 0.66 0.66 1.32 1 2 C2.32 1.67 3.64 1.34 5 1 C5 2.65 5 4.3 5 6 C3.35 6 1.7 6 0 6 C-0.38218767 4.34385343 -0.71395102 2.67542976 -1 1 C-0.67 0.67 -0.34 0.34 0 0 Z " fill="#262525" transform="translate(136,73)"/>
<path d="M0 0 C1.98 0.99 1.98 0.99 4 2 C4 2.66 4 3.32 4 4 C4.66 4 5.32 4 6 4 C6 4.66 6 5.32 6 6 C4.02 6 2.04 6 0 6 C0 4.02 0 2.04 0 0 Z " fill="#298AB7" transform="translate(66,139)"/>
<path d="M0 0 C3.3 0.33 6.6 0.66 10 1 C10 1.99 10 2.98 10 4 C6.37 3.67 2.74 3.34 -1 3 C-0.67 2.01 -0.34 1.02 0 0 Z " fill="#848484" transform="translate(174,108)"/>
<path d="M0 0 C0.66 0.99 1.32 1.98 2 3 C3.32381517 4.67423683 4.65576661 6.34211215 6 8 C5.01 8.495 5.01 8.495 4 9 C1.375 8.0625 1.375 8.0625 -1 7 C-1.04254356 5.00045254 -1.04080783 2.99958364 -1 1 C-0.67 0.67 -0.34 0.34 0 0 Z " fill="#3F7C49" transform="translate(106,95)"/>
<path d="M0 0 C0.33 0 0.66 0 1 0 C1.28571429 8.57142857 1.28571429 8.57142857 -1 12 C-1.66 12 -2.32 12 -3 12 C-2.40075776 7.80530429 -1.42500059 3.99000166 0 0 Z " fill="#607562" transform="translate(71,90)"/>
<path d="M0 0 C0.33 1.32 0.66 2.64 1 4 C1.99 4 2.98 4 4 4 C3.34 6.31 2.68 8.62 2 11 C1.34 11 0.68 11 0 11 C0 7.37 0 3.74 0 0 Z " fill="#3C8049" transform="translate(94,93)"/>
<path d="M0 0 C1.65 0 3.3 0 5 0 C5 1.65 5 3.3 5 5 C3.35 4.67 1.7 4.34 0 4 C0 2.68 0 1.36 0 0 Z " fill="#232323" transform="translate(116,68)"/>
<path d="M0 0 C0.33 0 0.66 0 1 0 C1 2.31 1 4.62 1 7 C-0.32 7 -1.64 7 -3 7 C-3 5.02 -3 3.04 -3 1 C-2.01 1.495 -2.01 1.495 -1 2 C-0.67 1.34 -0.34 0.68 0 0 Z " fill="#C66B34" transform="translate(52,143)"/>
<path d="M0 0 C0 3.52809907 -0.64276511 4.46815512 -3 7 C-3.99 7 -4.98 7 -6 7 C-5.67 5.35 -5.34 3.7 -5 2 C-4.360625 1.855625 -3.72125 1.71125 -3.0625 1.5625 C-1.02454854 1.18992819 -1.02454854 1.18992819 0 0 Z " fill="#949494" transform="translate(165,119)"/>
<path d="M0 0 C-5.17023869 3.44682579 -8.97365319 3.06347297 -15 2 C-15 1.67 -15 1.34 -15 1 C-9.91913204 0.15318867 -5.15171623 -0.09038099 0 0 Z " fill="#F7EDCD" transform="translate(181,98)"/>
<path d="M0 0 C0.33 0.66 0.66 1.32 1 2 C0.0625 4.625 0.0625 4.625 -1 7 C-1.99 7 -2.98 7 -4 7 C-4.66 5.02 -5.32 3.04 -6 1 C-5.38125 1.20625 -4.7625 1.4125 -4.125 1.625 C-3.073125 1.810625 -3.073125 1.810625 -2 2 C-1.34 1.34 -0.68 0.68 0 0 Z " fill="#EBE2BA" transform="translate(134,122)"/>
<path d="M0 0 C0.33 0 0.66 0 1 0 C1.09796875 0.61488281 1.1959375 1.22976562 1.296875 1.86328125 C2.13291046 6.99409305 2.13291046 6.99409305 5.125 11.0625 C5.74375 11.371875 6.3625 11.68125 7 12 C4.625 12.1875 4.625 12.1875 2 12 C-0.13586678 8.79619983 -0.23132175 7.98060033 -0.125 4.3125 C-0.10695313 3.50425781 -0.08890625 2.69601563 -0.0703125 1.86328125 C-0.04710938 1.24839844 -0.02390625 0.63351563 0 0 Z " fill="#495649" transform="translate(81,93)"/>
<path d="M0 0 C0.66 0 1.32 0 2 0 C2.33 1.65 2.66 3.3 3 5 C2.34 5 1.68 5 1 5 C0.67 6.98 0.34 8.96 0 11 C-0.33 11 -0.66 11 -1 11 C-1.14285714 3.57142857 -1.14285714 3.57142857 0 0 Z " fill="#53885C" transform="translate(146,93)"/>
<path d="M0 0 C0.99 0 1.98 0 3 0 C1.375 5.75 1.375 5.75 -2 8 C-2.20086443 4.28400809 -2.1519437 3.22791555 0 0 Z " fill="#0D0C0A" transform="translate(117,120)"/>
<path d="M0 0 C0.33 0.66 0.66 1.32 1 2 C1.99 2.33 2.98 2.66 4 3 C3.67 3.66 3.34 4.32 3 5 C1.35 4.67 -0.3 4.34 -2 4 C-2.33 3.01 -2.66 2.02 -3 1 C-2.01 0.67 -1.02 0.34 0 0 Z " fill="#5A715E" transform="translate(107,101)"/>
<path d="M0 0 C0.33 0 0.66 0 1 0 C1 2.97 1 5.94 1 9 C0.01 9 -0.98 9 -2 9 C-2.20140476 5.37471432 -1.85776765 3.13498292 0 0 Z " fill="#2B2B2B" transform="translate(152,70)"/>
<path d="M0 0 C2.13671875 0.39453125 2.13671875 0.39453125 4 1 C3.27683594 1.50660156 3.27683594 1.50660156 2.5390625 2.0234375 C1.90742188 2.46945313 1.27578125 2.91546875 0.625 3.375 C-0.00148437 3.81585938 -0.62796875 4.25671875 -1.2734375 4.7109375 C-3.12380509 6.02808866 -3.12380509 6.02808866 -5 8 C-4.46104623 4.2273236 -3.00464642 2.31787009 0 0 Z " fill="#191918" transform="translate(152,114)"/>
<path d="M0 0 C0.66 0.33 1.32 0.66 2 1 C-1.75 4 -1.75 4 -4 4 C-4.66 5.32 -5.32 6.64 -6 8 C-6.33 7.01 -6.66 6.02 -7 5 C-4.69 3.35 -2.38 1.7 0 0 Z " fill="#F7EDC6" transform="translate(132,112)"/>
<path d="M0 0 C0.33 0.66 0.66 1.32 1 2 C1.99 2 2.98 2 4 2 C4.33 1.34 4.66 0.68 5 0 C5 1.32 5 2.64 5 4 C3.02 4.33 1.04 4.66 -1 5 C-0.67 3.35 -0.34 1.7 0 0 Z " fill="#3C8047" transform="translate(134,96)"/>
<path d="M0 0 C0.66 0 1.32 0 2 0 C2 2.31 2 4.62 2 7 C1.34 7 0.68 7 0 7 C-0.38133299 5.0085944 -0.71325582 3.00720923 -1 1 C-0.67 0.67 -0.34 0.34 0 0 Z " fill="#ECF0EB" transform="translate(108,93)"/>
<path d="M0 0 C0.33 0 0.66 0 1 0 C1 1.98 1 3.96 1 6 C0.67 6 0.34 6 0 6 C0 4.02 0 2.04 0 0 Z " fill="#FEFEFE" transform="translate(189,103)"/>
<path d="M0 0 C0.33 0 0.66 0 1 0 C1 1.98 1 3.96 1 6 C0.67 6 0.34 6 0 6 C0 4.02 0 2.04 0 0 Z " fill="#FEFEFE" transform="translate(0,103)"/>
<path d="M0 0 C0.33 0 0.66 0 1 0 C1 1.98 1 3.96 1 6 C0.67 6 0.34 6 0 6 C0 4.02 0 2.04 0 0 Z " fill="#FEFEFE" transform="translate(189,79)"/>
<path d="M0 0 C0.33 0 0.66 0 1 0 C1 1.98 1 3.96 1 6 C0.67 6 0.34 6 0 6 C0 4.02 0 2.04 0 0 Z " fill="#FEFEFE" transform="translate(0,79)"/>
<path d="M0 0 C4 1 4 1 4 1 Z " fill="#FEFEFE" transform="translate(111,187)"/>
<path d="M0 0 C4 1 4 1 4 1 Z " fill="#FEFEFE" transform="translate(75,187)"/>
<path d="M0 0 C1 4 1 4 1 4 Z " fill="#FEFEFE" transform="translate(188,110)"/>
<path d="M0 0 C1 4 1 4 1 4 Z " fill="#FEFEFE" transform="translate(1,110)"/>
<path d="M0 0 C4 1 4 1 4 1 Z " fill="#FEFEFE" transform="translate(111,0)"/>
<path d="M0 0 C4 1 4 1 4 1 Z " fill="#FEFEFE" transform="translate(75,0)"/>
<path d="M0 0 C3 1 3 1 3 1 Z " fill="#FFFFFF" transform="translate(116,186)"/>
<path d="M0 0 C3 1 3 1 3 1 Z " fill="#FFFFFF" transform="translate(71,186)"/>
<path d="M0 0 C3 1 3 1 3 1 Z " fill="#FEFEFE" transform="translate(120,185)"/>
<path d="M0 0 C3 1 3 1 3 1 Z " fill="#FEFEFE" transform="translate(123,184)"/>
<path d="M0 0 C3 1 3 1 3 1 Z " fill="#FFFFFF" transform="translate(126,183)"/>
<path d="" fill="#FFFFFF" transform="translate(0,0)"/>
<path d="" fill="#FEFEFE" transform="translate(0,0)"/>
<path d="" fill="#FFFFFF" transform="translate(0,0)"/>
<path d="" fill="#FEFEFE" transform="translate(0,0)"/>
<path d="" fill="#B4B4B4" transform="translate(0,0)"/>
<path d="" fill="#FEFEFE" transform="translate(0,0)"/>
<path d="" fill="#D7D7D7" transform="translate(0,0)"/>
<path d="" fill="#FEFEFE" transform="translate(0,0)"/>
<path d="" fill="#FDFDFD" transform="translate(0,0)"/>
<path d="" fill="#FEFEFE" transform="translate(0,0)"/>
<path d="" fill="#FDFDFD" transform="translate(0,0)"/>
<path d="" fill="#FEFEFE" transform="translate(0,0)"/>
<path d="M0 0 C3 1 3 1 3 1 Z " fill="#FFFFFF" transform="translate(126,4)"/>
<path d="M0 0 C3 1 3 1 3 1 Z " fill="#FEFEFE" transform="translate(123,3)"/>
<path d="M0 0 C3 1 3 1 3 1 Z " fill="#FEFEFE" transform="translate(120,2)"/>
<path d="M0 0 C3 1 3 1 3 1 Z " fill="#FEFEFE" transform="translate(116,1)"/>
<path d="M0 0 C3 1 3 1 3 1 Z " fill="#FEFEFE" transform="translate(71,1)"/>
<path d="M0 0 C2 1 2 1 2 1 Z " fill="#FFFFFF" transform="translate(68,185)"/>
<path d="M0 0 C2 1 2 1 2 1 Z " fill="#FFFFFF" transform="translate(65,184)"/>
<path d="M0 0 C2 1 2 1 2 1 Z " fill="#FFFFFF" transform="translate(62,183)"/>
<path d="M0 0 C2 1 2 1 2 1 Z " fill="#FEFEFE" transform="translate(129,182)"/>
<path d="M0 0 C2 1 2 1 2 1 Z " fill="#FDFDFD" transform="translate(59,182)"/>
<path d="M0 0 C2 1 2 1 2 1 Z " fill="#FFFFFF" transform="translate(131,181)"/>
<path d="M0 0 C2 1 2 1 2 1 Z " fill="#FEFEFE" transform="translate(57,181)"/>
<path d="M0 0 C2 1 2 1 2 1 Z " fill="#FEFEFE" transform="translate(143,175)"/>
<path d="M0 0 C2 1 2 1 2 1 Z " fill="#FEFEFE" transform="translate(45,175)"/>
<path d="M0 0 C2 1 2 1 2 1 Z " fill="#FFFFFF" transform="translate(146,173)"/>
<path d="M0 0 C2 1 2 1 2 1 Z " fill="#FEFEFE" transform="translate(42,173)"/>
<path d="" fill="#FDFDFD" transform="translate(0,0)"/>
<path d="" fill="#FDFDFD" transform="translate(0,0)"/>
<path d="" fill="#FEFEFE" transform="translate(0,0)"/>
<path d="" fill="#FDFDFD" transform="translate(0,0)"/>
<path d="" fill="#FEFEFE" transform="translate(0,0)"/>
<path d="" fill="#FDFDFD" transform="translate(0,0)"/>
<path d="" fill="#FEFEFE" transform="translate(0,0)"/>
<path d="" fill="#FFFFFF" transform="translate(0,0)"/>
<path d="" fill="#FEFEFE" transform="translate(0,0)"/>
<path d="" fill="#FFFFFF" transform="translate(0,0)"/>
<path d="" fill="#FEFEFE" transform="translate(0,0)"/>
<path d="" fill="#FDFDFD" transform="translate(0,0)"/>
<path d="" fill="#FEFEFE" transform="translate(0,0)"/>
<path d="" fill="#FFFFFF" transform="translate(0,0)"/>
<path d="" fill="#FEFEFE" transform="translate(0,0)"/>
<path d="" fill="#FEFEFE" transform="translate(0,0)"/>
<path d="M0 0 C2 1 2 1 2 1 Z " fill="#FEFEFE" transform="translate(47,11)"/>
<path d="M0 0 C2 1 2 1 2 1 Z " fill="#FEFEFE" transform="translate(57,6)"/>
<path d="M0 0 C2 1 2 1 2 1 Z " fill="#FEFEFE" transform="translate(129,5)"/>
<path d="M0 0 C2 1 2 1 2 1 Z " fill="#FEFEFE" transform="translate(59,5)"/>
<path d="M0 0 C2 1 2 1 2 1 Z " fill="#FEFEFE" transform="translate(62,4)"/>
<path d="M0 0 C2 1 2 1 2 1 Z " fill="#FEFEFE" transform="translate(65,3)"/>
<path d="M0 0 C2 1 2 1 2 1 Z " fill="#FEFEFE" transform="translate(68,2)"/>
<path d="" fill="#FEFEFE" transform="translate(0,0)"/>
<path d="" fill="#FEFEFE" transform="translate(0,0)"/>
<path d="" fill="#FEFEFE" transform="translate(0,0)"/>
<path d="" fill="#FEFEFE" transform="translate(0,0)"/>
<path d="" fill="#FEFEFE" transform="translate(0,0)"/>
<path d="" fill="#FDFDFD" transform="translate(0,0)"/>
<path d="" fill="#FDFDFD" transform="translate(0,0)"/>
<path d="" fill="#FDFDFD" transform="translate(0,0)"/>
<path d="" fill="#FDFDFD" transform="translate(0,0)"/>
<path d="" fill="#FDFDFD" transform="translate(0,0)"/>
<path d="" fill="#FDFDFD" transform="translate(0,0)"/>
<path d="" fill="#FDFDFD" transform="translate(0,0)"/>
<path d="" fill="#FDFDFD" transform="translate(0,0)"/>
<path d="" fill="#FDFDFD" transform="translate(0,0)"/>
<path d="" fill="#FFFFFF" transform="translate(0,0)"/>
<path d="" fill="#FFFFFF" transform="translate(0,0)"/>
<path d="" fill="#FFFFFF" transform="translate(0,0)"/>
<path d="" fill="#FFFFFF" transform="translate(0,0)"/>
<path d="" fill="#FDFDFD" transform="translate(0,0)"/>
<path d="" fill="#FDFDFD" transform="translate(0,0)"/>
<path d="" fill="#FFFFFF" transform="translate(0,0)"/>
<path d="" fill="#FFFFFF" transform="translate(0,0)"/>
<path d="" fill="#FDFDFD" transform="translate(0,0)"/>
<path d="" fill="#FDFDFD" transform="translate(0,0)"/>
<path d="" fill="#FDFDFD" transform="translate(0,0)"/>
<path d="" fill="#FDFDFD" transform="translate(0,0)"/>
<path d="" fill="#FDFDFD" transform="translate(0,0)"/>
<path d="" fill="#FDFDFD" transform="translate(0,0)"/>
<path d="" fill="#FDFDFD" transform="translate(0,0)"/>
<path d="" fill="#FDFDFD" transform="translate(0,0)"/>
<path d="" fill="#FDFDFD" transform="translate(0,0)"/>
<path d="" fill="#FDFDFD" transform="translate(0,0)"/>
<path d="" fill="#FDFDFD" transform="translate(0,0)"/>
<path d="" fill="#FDFDFD" transform="translate(0,0)"/>
<path d="" fill="#FDFDFD" transform="translate(0,0)"/>
<path d="" fill="#FDFDFD" transform="translate(0,0)"/>
<path d="" fill="#FDFDFD" transform="translate(0,0)"/>
<path d="" fill="#FDFDFD" transform="translate(0,0)"/>
<path d="" fill="#FDFDFD" transform="translate(0,0)"/>
<path d="" fill="#FDFDFD" transform="translate(0,0)"/>
<path d="" fill="#FDFDFD" transform="translate(0,0)"/>
<path d="" fill="#FDFDFD" transform="translate(0,0)"/>
<path d="" fill="#FDFDFD" transform="translate(0,0)"/>
<path d="" fill="#FDFDFD" transform="translate(0,0)"/>
<path d="" fill="#FDFDFD" transform="translate(0,0)"/>
<path d="" fill="#FDFDFD" transform="translate(0,0)"/>
<path d="" fill="#FDFDFD" transform="translate(0,0)"/>
<path d="" fill="#FDFDFD" transform="translate(0,0)"/>
<path d="" fill="#FFFFFF" transform="translate(0,0)"/>
<path d="" fill="#FFFFFF" transform="translate(0,0)"/>
<path d="" fill="#FFFFFF" transform="translate(0,0)"/>
<path d="" fill="#FFFFFF" transform="translate(0,0)"/>
<path d="" fill="#FDFDFD" transform="translate(0,0)"/>
<path d="" fill="#FDFDFD" transform="translate(0,0)"/>
<path d="" fill="#FFFFFF" transform="translate(0,0)"/>
<path d="" fill="#FFFFFF" transform="translate(0,0)"/>
<path d="" fill="#FFFFFF" transform="translate(0,0)"/>
<path d="" fill="#FFFFFF" transform="translate(0,0)"/>
<path d="" fill="#FDFDFD" transform="translate(0,0)"/>
<path d="" fill="#FDFDFD" transform="translate(0,0)"/>
<path d="" fill="#FDFDFD" transform="translate(0,0)"/>
<path d="" fill="#D7E7CB" transform="translate(0,0)"/>
<path d="" fill="#FDFDFD" transform="translate(0,0)"/>
<path d="" fill="#B7D5A1" transform="translate(0,0)"/>
<path d="" fill="#FDFDFD" transform="translate(0,0)"/>
<path d="" fill="#F3FBED" transform="translate(0,0)"/>
<path d="" fill="#FDFDFD" transform="translate(0,0)"/>
<path d="" fill="#FDFDFD" transform="translate(0,0)"/>
<path d="" fill="#FDFDFD" transform="translate(0,0)"/>
<path d="" fill="#FEFEFE" transform="translate(0,0)"/>
<path d="" fill="#FDFDFD" transform="translate(0,0)"/>
<path d="" fill="#FDFDFD" transform="translate(0,0)"/>
<path d="" fill="#FDFDFD" transform="translate(0,0)"/>
<path d="" fill="#FEFEFE" transform="translate(0,0)"/>
<path d="" fill="#FFFFFF" transform="translate(0,0)"/>
<path d="" fill="#FDFDFD" transform="translate(0,0)"/>
<path d="" fill="#FCFCFC" transform="translate(0,0)"/>
<path d="" fill="#FDFDFD" transform="translate(0,0)"/>
<path d="" fill="#FCFCFC" transform="translate(0,0)"/>
<path d="" fill="#FDFDFD" transform="translate(0,0)"/>
<path d="" fill="#FCFCFC" transform="translate(0,0)"/>
<path d="" fill="#FDFDFD" transform="translate(0,0)"/>
<path d="" fill="#FCFCFC" transform="translate(0,0)"/>
<path d="" fill="#FDFDFD" transform="translate(0,0)"/>
<path d="" fill="#FCFCFC" transform="translate(0,0)"/>
<path d="" fill="#FDFDFD" transform="translate(0,0)"/>
<path d="" fill="#FCFCFC" transform="translate(0,0)"/>
<path d="" fill="#FDFDFD" transform="translate(0,0)"/>
<path d="" fill="#FEFEFE" transform="translate(0,0)"/>
<path d="" fill="#FCFCFC" transform="translate(0,0)"/>
<path d="" fill="#FEFEFE" transform="translate(0,0)"/>
<path d="" fill="#FEFEFE" transform="translate(0,0)"/>
<path d="" fill="#FEFEFE" transform="translate(0,0)"/>
<path d="" fill="#FEFEFE" transform="translate(0,0)"/>
<path d="" fill="#FEFEFE" transform="translate(0,0)"/>
<path d="" fill="#FEFEFE" transform="translate(0,0)"/>
<path d="" fill="#FEFEFE" transform="translate(0,0)"/>
<path d="" fill="#FEFEFE" transform="translate(0,0)"/>
<path d="" fill="#FEFEFE" transform="translate(0,0)"/>
<path d="" fill="#FEFEFE" transform="translate(0,0)"/>
<path d="" fill="#FEFEFE" transform="translate(0,0)"/>
<path d="" fill="#FCFCFC" transform="translate(0,0)"/>
<path d="" fill="#FEFEFE" transform="translate(0,0)"/>
<path d="" fill="#FCFCFC" transform="translate(0,0)"/>
<path d="" fill="#FEFEFE" transform="translate(0,0)"/>
<path d="" fill="#FCFCFC" transform="translate(0,0)"/>
<path d="" fill="#FEFEFE" transform="translate(0,0)"/>
<path d="" fill="#FCFCFC" transform="translate(0,0)"/>
<path d="" fill="#FEFEFE" transform="translate(0,0)"/>
<path d="" fill="#FCFCFC" transform="translate(0,0)"/>
<path d="" fill="#FEFEFE" transform="translate(0,0)"/>
<path d="" fill="#FCFCFC" transform="translate(0,0)"/>
<path d="" fill="#FEFEFE" transform="translate(0,0)"/>
<path d="" fill="#FCFCFC" transform="translate(0,0)"/>
<path d="" fill="#FEFEFE" transform="translate(0,0)"/>
<path d="" fill="#FCFCFC" transform="translate(0,0)"/>
<path d="" fill="#FEFEFE" transform="translate(0,0)"/>
<path d="" fill="#FCFCFC" transform="translate(0,0)"/>
<path d="" fill="#FEFEFE" transform="translate(0,0)"/>
<path d="" fill="#FCFCFC" transform="translate(0,0)"/>
<path d="" fill="#FEFEFE" transform="translate(0,0)"/>
<path d="" fill="#FCFCFC" transform="translate(0,0)"/>
<path d="" fill="#FEFEFE" transform="translate(0,0)"/>
<path d="" fill="#FCFCFC" transform="translate(0,0)"/>
<path d="" fill="#FEFEFE" transform="translate(0,0)"/>
<path d="" fill="#FCFCFC" transform="translate(0,0)"/>
<path d="" fill="#FEFEFE" transform="translate(0,0)"/>
<path d="" fill="#FCFCFC" transform="translate(0,0)"/>
<path d="" fill="#FEFEFE" transform="translate(0,0)"/>
<path d="" fill="#FEFEFE" transform="translate(0,0)"/>
<path d="" fill="#FEFEFE" transform="translate(0,0)"/>
<path d="" fill="#FEFEFE" transform="translate(0,0)"/>
<path d="" fill="#FEFEFE" transform="translate(0,0)"/>
<path d="" fill="#FEFEFE" transform="translate(0,0)"/>
<path d="" fill="#FEFEFE" transform="translate(0,0)"/>
<path d="" fill="#FEFEFE" transform="translate(0,0)"/>
<path d="" fill="#FEFEFE" transform="translate(0,0)"/>
<path d="" fill="#FCFCFC" transform="translate(0,0)"/>
<path d="" fill="#FDFDFD" transform="translate(0,0)"/>
<path d="" fill="#FEFEFE" transform="translate(0,0)"/>
<path d="" fill="#FFFFFF" transform="translate(0,0)"/>
<path d="" fill="#FEFEFE" transform="translate(0,0)"/>
<path d="" fill="#FEFEFE" transform="translate(0,0)"/>
<path d="" fill="#FEFEFE" transform="translate(0,0)"/>
<path d="" fill="#FFFFFF" transform="translate(0,0)"/>
<path d="" fill="#FEFEFE" transform="translate(0,0)"/>
<path d="" fill="#FEFEFE" transform="translate(0,0)"/>
<path d="" fill="#FEFEFE" transform="translate(0,0)"/>
<path d="" fill="#FEFEFE" transform="translate(0,0)"/>
<path d="" fill="#FEFEFE" transform="translate(0,0)"/>
<path d="" fill="#FEFEFE" transform="translate(0,0)"/>
<path d="" fill="#FFFFFF" transform="translate(0,0)"/>
<path d="" fill="#FEFEFE" transform="translate(0,0)"/>
<path d="" fill="#FFFFFF" transform="translate(0,0)"/>
</svg>
