<svg id="visual" viewBox="0 0 960 540" width="960" height="540" xmlns="http://www.w3.org/2000/svg" xmlns:xlink="http://www.w3.org/1999/xlink" version="1.1"><rect x="0" y="0" width="960" height="540" fill="#000000"></rect><defs><linearGradient id="grad1_0" x1="43.8%" y1="0%" x2="100%" y2="100%"><stop offset="14.444444444444446%" stop-color="#000000" stop-opacity="1"></stop><stop offset="85.55555555555554%" stop-color="#000000" stop-opacity="1"></stop></linearGradient></defs><defs><linearGradient id="grad2_0" x1="0%" y1="0%" x2="56.3%" y2="100%"><stop offset="14.444444444444446%" stop-color="#000000" stop-opacity="1"></stop><stop offset="85.55555555555554%" stop-color="#000000" stop-opacity="1"></stop></linearGradient></defs><g transform="translate(960, 0)"><path d="M0 486C-71.9 487.2 -143.8 488.4 -186 449C-228.2 409.7 -240.8 329.8 -282.8 282.8C-324.9 235.9 -396.4 221.9 -435.1 180.2C-473.9 138.6 -480 69.3 -486 0L0 0Z" fill="#fafafa"></path></g><g transform="translate(0, 540)"><path d="M0 -486C71.8 -486.9 143.5 -487.8 186 -449C228.4 -410.2 241.6 -331.8 285.7 -285.7C329.8 -239.6 404.9 -225.9 443.5 -183.7C482 -141.5 484 -70.7 486 0L0 0Z" fill="#fafafa"></path></g></svg>