<svg id="visual" viewBox="0 0 960 540" width="960" height="540" xmlns="http://www.w3.org/2000/svg" xmlns:xlink="http://www.w3.org/1999/xlink" version="1.1"><rect x="0" y="0" width="960" height="540" fill="#000000"></rect><defs><linearGradient id="grad1_0" x1="43.8%" y1="100%" x2="100%" y2="0%"><stop offset="14.444444444444446%" stop-color="#000000" stop-opacity="1"></stop><stop offset="85.55555555555554%" stop-color="#000000" stop-opacity="1"></stop></linearGradient></defs><defs><linearGradient id="grad2_0" x1="0%" y1="100%" x2="56.3%" y2="0%"><stop offset="14.444444444444446%" stop-color="#000000" stop-opacity="1"></stop><stop offset="85.55555555555554%" stop-color="#000000" stop-opacity="1"></stop></linearGradient></defs><g transform="translate(960, 540)"><path d="M-486 0C-487.2 -71.9 -488.4 -143.8 -449 -186C-409.7 -228.2 -329.8 -240.8 -282.8 -282.8C-235.9 -324.9 -221.9 -396.4 -180.2 -435.1C-138.6 -473.9 -69.3 -480 0 -486L0 0Z" fill="#fafafa"></path></g><g transform="translate(0, 0)"><path d="M486 0C486.9 71.8 487.8 143.5 449 186C410.2 228.4 331.8 241.6 285.7 285.7C239.6 329.8 225.9 404.9 183.7 443.5C141.5 482 70.7 484 0 486L0 0Z" fill="#fafafa"></path></g></svg>