<svg id="visual" viewBox="0 0 960 540" width="960" height="540" xmlns="http://www.w3.org/2000/svg" xmlns:xlink="http://www.w3.org/1999/xlink" version="1.1"><rect x="0" y="0" width="960" height="540" fill="#ffffff"></rect><path d="M0 165L22.8 166.5C45.7 168 91.3 171 137 167.8C182.7 164.7 228.3 155.3 274 160.3C319.7 165.3 365.3 184.7 411.2 190C457 195.3 503 186.7 548.8 181.7C594.7 176.7 640.3 175.3 686 176.7C731.7 178 777.3 182 823 185.8C868.7 189.7 914.3 193.3 937.2 195.2L960 197L960 0L937.2 0C914.3 0 868.7 0 823 0C777.3 0 731.7 0 686 0C640.3 0 594.7 0 548.8 0C503 0 457 0 411.2 0C365.3 0 319.7 0 274 0C228.3 0 182.7 0 137 0C91.3 0 45.7 0 22.8 0L0 0Z" fill="#34a682"></path><path d="M0 183L22.8 173.8C45.7 164.7 91.3 146.3 137 146C182.7 145.7 228.3 163.3 274 166C319.7 168.7 365.3 156.3 411.2 146.7C457 137 503 130 548.8 128.7C594.7 127.3 640.3 131.7 686 140.2C731.7 148.7 777.3 161.3 823 161.5C868.7 161.7 914.3 149.3 937.2 143.2L960 137L960 0L937.2 0C914.3 0 868.7 0 823 0C777.3 0 731.7 0 686 0C640.3 0 594.7 0 548.8 0C503 0 457 0 411.2 0C365.3 0 319.7 0 274 0C228.3 0 182.7 0 137 0C91.3 0 45.7 0 22.8 0L0 0Z" fill="#27856b"></path><path d="M0 138L22.8 135.2C45.7 132.3 91.3 126.7 137 121.7C182.7 116.7 228.3 112.3 274 111.5C319.7 110.7 365.3 113.3 411.2 111.3C457 109.3 503 102.7 548.8 100C594.7 97.3 640.3 98.7 686 100.2C731.7 101.7 777.3 103.3 823 105C868.7 106.7 914.3 108.3 937.2 109.2L960 110L960 0L937.2 0C914.3 0 868.7 0 823 0C777.3 0 731.7 0 686 0C640.3 0 594.7 0 548.8 0C503 0 457 0 411.2 0C365.3 0 319.7 0 274 0C228.3 0 182.7 0 137 0C91.3 0 45.7 0 22.8 0L0 0Z" fill="#1d6553"></path><path d="M0 102L22.8 98C45.7 94 91.3 86 137 82.5C182.7 79 228.3 80 274 79.3C319.7 78.7 365.3 76.3 411.2 80C457 83.7 503 93.3 548.8 97.3C594.7 101.3 640.3 99.7 686 92.5C731.7 85.3 777.3 72.7 823 65.8C868.7 59 914.3 58 937.2 57.5L960 57L960 0L937.2 0C914.3 0 868.7 0 823 0C777.3 0 731.7 0 686 0C640.3 0 594.7 0 548.8 0C503 0 457 0 411.2 0C365.3 0 319.7 0 274 0C228.3 0 182.7 0 137 0C91.3 0 45.7 0 22.8 0L0 0Z" fill="#15473c"></path><path d="M0 30L22.8 30.7C45.7 31.3 91.3 32.7 137 35.3C182.7 38 228.3 42 274 40.8C319.7 39.7 365.3 33.3 411.2 29.5C457 25.7 503 24.3 548.8 28C594.7 31.7 640.3 40.3 686 44.5C731.7 48.7 777.3 48.3 823 44.7C868.7 41 914.3 34 937.2 30.5L960 27L960 0L937.2 0C914.3 0 868.7 0 823 0C777.3 0 731.7 0 686 0C640.3 0 594.7 0 548.8 0C503 0 457 0 411.2 0C365.3 0 319.7 0 274 0C228.3 0 182.7 0 137 0C91.3 0 45.7 0 22.8 0L0 0Z" fill="#0e2b25"></path></svg>