<svg id="visual" viewBox="0 0 960 540" width="960" height="540" xmlns="http://www.w3.org/2000/svg" xmlns:xlink="http://www.w3.org/1999/xlink" version="1.1"><rect x="0" y="0" width="960" height="540" fill="#ffffff"></rect><path d="M0 373L22.8 371.5C45.7 370 91.3 367 137 370.2C182.7 373.3 228.3 382.7 274 377.7C319.7 372.7 365.3 353.3 411.2 348C457 342.7 503 351.3 548.8 356.3C594.7 361.3 640.3 362.7 686 361.3C731.7 360 777.3 356 823 352.2C868.7 348.3 914.3 344.7 937.2 342.8L960 341L960 541L937.2 541C914.3 541 868.7 541 823 541C777.3 541 731.7 541 686 541C640.3 541 594.7 541 548.8 541C503 541 457 541 411.2 541C365.3 541 319.7 541 274 541C228.3 541 182.7 541 137 541C91.3 541 45.7 541 22.8 541L0 541Z" fill="#34a682"></path><path d="M0 355L22.8 364.2C45.7 373.3 91.3 391.7 137 392C182.7 392.3 228.3 374.7 274 372C319.7 369.3 365.3 381.7 411.2 391.3C457 401 503 408 548.8 409.3C594.7 410.7 640.3 406.3 686 397.8C731.7 389.3 777.3 376.7 823 376.5C868.7 376.3 914.3 388.7 937.2 394.8L960 401L960 541L937.2 541C914.3 541 868.7 541 823 541C777.3 541 731.7 541 686 541C640.3 541 594.7 541 548.8 541C503 541 457 541 411.2 541C365.3 541 319.7 541 274 541C228.3 541 182.7 541 137 541C91.3 541 45.7 541 22.8 541L0 541Z" fill="#27856b"></path><path d="M0 400L22.8 402.8C45.7 405.7 91.3 411.3 137 416.3C182.7 421.3 228.3 425.7 274 426.5C319.7 427.3 365.3 424.7 411.2 426.7C457 428.7 503 435.3 548.8 438C594.7 440.7 640.3 439.3 686 437.8C731.7 436.3 777.3 434.7 823 433C868.7 431.3 914.3 429.7 937.2 428.8L960 428L960 541L937.2 541C914.3 541 868.7 541 823 541C777.3 541 731.7 541 686 541C640.3 541 594.7 541 548.8 541C503 541 457 541 411.2 541C365.3 541 319.7 541 274 541C228.3 541 182.7 541 137 541C91.3 541 45.7 541 22.8 541L0 541Z" fill="#1d6553"></path><path d="M0 436L22.8 440C45.7 444 91.3 452 137 455.5C182.7 459 228.3 458 274 458.7C319.7 459.3 365.3 461.7 411.2 458C457 454.3 503 444.7 548.8 440.7C594.7 436.7 640.3 438.3 686 445.5C731.7 452.7 777.3 465.3 823 472.2C868.7 479 914.3 480 937.2 480.5L960 481L960 541L937.2 541C914.3 541 868.7 541 823 541C777.3 541 731.7 541 686 541C640.3 541 594.7 541 548.8 541C503 541 457 541 411.2 541C365.3 541 319.7 541 274 541C228.3 541 182.7 541 137 541C91.3 541 45.7 541 22.8 541L0 541Z" fill="#15473c"></path><path d="M0 508L22.8 507.3C45.7 506.7 91.3 505.3 137 502.7C182.7 500 228.3 496 274 497.2C319.7 498.3 365.3 504.7 411.2 508.5C457 512.3 503 513.7 548.8 510C594.7 506.3 640.3 497.7 686 493.5C731.7 489.3 777.3 489.7 823 493.3C868.7 497 914.3 504 937.2 507.5L960 511L960 541L937.2 541C914.3 541 868.7 541 823 541C777.3 541 731.7 541 686 541C640.3 541 594.7 541 548.8 541C503 541 457 541 411.2 541C365.3 541 319.7 541 274 541C228.3 541 182.7 541 137 541C91.3 541 45.7 541 22.8 541L0 541Z" fill="#0e2b25"></path></svg>